<?xml version="1.0" encoding="UTF-8" standalone="no"?>
<!DOCTYPE svg PUBLIC "-//W3C//DTD SVG 1.1//EN" "http://www.w3.org/Graphics/SVG/1.1/DTD/svg11.dtd">
<svg width="100%" height="100%" viewBox="0 0 432 432" version="1.1" xmlns="http://www.w3.org/2000/svg" xmlns:xlink="http://www.w3.org/1999/xlink" xml:space="preserve" xmlns:serif="http://www.serif.com/" style="fill-rule:evenodd;clip-rule:evenodd;stroke-linejoin:round;stroke-miterlimit:2;">
    <g transform="matrix(1,0,0,1,49.1893,188.511)">
        <path d="M0,11.18C0.911,11.051 1.764,10.105 1.825,9.366C1.917,8.217 2.007,7.069 2.125,5.923C2.14,5.924 2.156,5.926 2.171,5.927C2.288,4.794 2.436,3.665 2.576,2.535C2.7,1.534 2.132,0.798 1.259,0.274C0.613,-0.114 -0.124,-0.172 -0.835,0.269C-1.542,0.709 -1.843,1.348 -1.966,2.082C-2.1,2.879 -2.213,3.679 -2.298,4.482C-2.466,6.073 -2.632,7.668 -2.65,9.268C-2.663,10.405 -1.204,11.352 0,11.18" style="fill:rgb(23,56,99);fill-rule:nonzero;"/>
    </g>
    <g transform="matrix(1,0,0,1,63.5529,296.027)">
        <path d="M0,8.412L6.883,0L-3.908,1.355L0,8.412Z" style="fill:rgb(23,56,99);fill-rule:nonzero;"/>
    </g>
    <g transform="matrix(1,0,0,1,382.613,199.416)">
        <path d="M0,-10.632C-0.873,-10.107 -1.442,-9.372 -1.317,-8.371C-1.177,-7.241 -1.029,-6.111 -0.912,-4.978C-0.897,-4.98 -0.882,-4.981 -0.867,-4.983C-0.748,-3.837 -0.658,-2.688 -0.566,-1.54C-0.505,-0.801 0.347,0.145 1.259,0.274C2.463,0.446 3.922,-0.501 3.909,-1.638C3.89,-3.238 3.724,-4.833 3.556,-6.423C3.471,-7.226 3.358,-8.027 3.225,-8.823C3.102,-9.558 2.8,-10.197 2.093,-10.636C1.382,-11.078 0.646,-11.02 0,-10.632" style="fill:rgb(23,56,99);fill-rule:nonzero;"/>
    </g>
    <g transform="matrix(1,0,0,1,274.063,130.053)">
        <path d="M0,75.14C2.84,58.57 2.17,43.89 0.72,33.28L0.5,31.83L-50.54,16.88L-57.04,-9.08C-54.39,-9.08 -51.74,-8.94 -49.1,-8.68C-48.11,-8.58 -47.12,-8.47 -46.14,-8.34C-24.09,-5.47 -3.17,5.33 11.79,21.8C27.1,38.67 36.4,61.36 36.4,84.22L0,75.14Z" style="fill:rgb(23,56,99);fill-rule:nonzero;"/>
    </g>
    <g transform="matrix(1,0,0,1,157.633,171.683)">
        <path d="M0,-8.04C-1.44,2.53 -2.12,17.12 0.68,33.56L-36.13,42.72C-36.13,41.14 -36.08,39.52 -35.94,37.94C-35.81,35.36 -35.56,32.79 -35.2,30.23C-32.16,9.06 -21.56,-11.07 -5.84,-25.57C-5.75,-25.65 -5.67,-25.72 -5.59,-25.8C10.59,-40.67 31.61,-49.26 53.47,-50.62C54.92,-50.71 56.32,-50.76 57.76,-50.76L51.26,-24.7L0.23,-9.48L0,-8.04Z" style="fill:rgb(23,56,99);fill-rule:nonzero;"/>
    </g>
    <g transform="matrix(1,0,0,1,94.5377,99.565)">
        <path d="M0,-1.975L-10.133,-5.906L-5.493,3.931L0,-1.975Z" style="fill:rgb(23,56,99);fill-rule:nonzero;"/>
    </g>
    <g transform="matrix(1,0,0,1,167.202,47.6567)">
        <path d="M0,5.864L-6.949,-2.494L-7.671,8.358L0,5.864Z" style="fill:rgb(23,56,99);fill-rule:nonzero;"/>
    </g>
    <g transform="matrix(1,0,0,1,86.1476,329.776)">
        <path d="M0,-12.01L-6.754,-6.379L-3.371,-2.32C-2.366,-1.116 -1.3,-0.411 -0.17,-0.206C0.958,0 2.097,-0.377 3.247,-1.335C4.358,-2.262 4.91,-3.295 4.902,-4.436C4.894,-5.576 4.388,-6.748 3.383,-7.952L0,-12.01Z" style="fill:rgb(23,56,99);fill-rule:nonzero;"/>
    </g>
    <g transform="matrix(1,0,0,1,308.579,363.005)">
        <path d="M0,2.553L-8.596,-4.099L-6.948,6.652L0,2.553Z" style="fill:rgb(23,56,99);fill-rule:nonzero;"/>
    </g>
    <g transform="matrix(1,0,0,1,336.022,351.661)">
        <path d="M0,-11.271C-0.786,-12.155 -1.648,-12.833 -2.586,-13.308C-3.523,-13.781 -4.488,-14.068 -5.483,-14.17C-6.476,-14.27 -7.449,-14.157 -8.399,-13.829C-9.35,-13.499 -10.24,-12.966 -11.069,-12.229L-14.721,-8.983L-4.069,2.999L-0.228,-0.415C0.583,-1.137 1.194,-1.938 1.605,-2.821C2.015,-3.701 2.232,-4.629 2.255,-5.601C2.279,-6.574 2.105,-7.541 1.734,-8.503C1.363,-9.465 0.785,-10.387 0,-11.271" style="fill:rgb(23,56,99);fill-rule:nonzero;"/>
    </g>
    <g transform="matrix(1,0,0,1,240.646,379.58)">
        <path d="M0,10.62L7.959,9.308L2.346,0L0,10.62Z" style="fill:rgb(23,56,99);fill-rule:nonzero;"/>
    </g>
    <g transform="matrix(1,0,0,1,362.893,117.043)">
        <path d="M0,91.13C-1.09,90.36 -2.3,89.64 -3.7,89.05C-5.92,56.63 -18.97,27.09 -39.29,4.11L-39.29,4.06C-38.75,2.66 -38.34,1.31 -38.12,0C-15.99,24.38 -1.85,56.13 0,91.13" style="fill:rgb(23,56,99);fill-rule:nonzero;"/>
    </g>
    <g transform="matrix(-0.913697,-0.406397,-0.406397,0.913697,53.173,193.859)">
        <path d="M-20.577,-88.78C-11.223,-59.119 -11.426,-26.331 -23.011,4.589C-21.963,5.799 -21.141,7.052 -20.577,8.244C-7.467,-25.019 -7.326,-60.45 -17.858,-92.211C-18.534,-91.034 -19.452,-89.856 -20.577,-88.78" style="fill:rgb(23,56,99);fill-rule:nonzero;"/>
    </g>
    <g transform="matrix(1,0,0,1,115.094,323.433)">
        <path d="M0,-0.01C-0.04,-0.01 -0.09,0.04 -0.13,0.04C-0.18,-0.01 -0.18,-0.05 -0.22,-0.05C-0.13,-0.05 -0.09,-0.01 0,-0.01" style="fill:rgb(23,56,99);fill-rule:nonzero;"/>
    </g>
    <g transform="matrix(1,0,0,1,208.713,108.283)">
        <path d="M0,-39.29C-0.63,-38.53 -1.17,-37.62 -1.67,-36.63C-1.85,-36.31 -2.03,-35.95 -2.17,-35.59C-34.86,-33.51 -64.67,-20.42 -87.84,0C-89.28,-0.55 -90.73,-0.91 -92.08,-1.04C-67.47,-23.4 -35.32,-37.62 0,-39.29" style="fill:rgb(23,56,99);fill-rule:nonzero;"/>
    </g>
    <g transform="matrix(1,0,0,1,314.393,70.2034)">
        <path d="M0,36.5C-1.31,36.72 -2.71,37.13 -4.07,37.71C-27.19,17.48 -56.82,4.52 -89.38,2.49C-89.51,2.13 -89.69,1.77 -89.87,1.45C-90.37,0.46 -90.91,-0.45 -91.54,-1.21C-56.45,0.41 -24.53,14.41 0,36.5" style="fill:rgb(23,56,99);fill-rule:nonzero;"/>
    </g>
    <g transform="matrix(1,0,0,1,386.873,168.423)">
        <path d="M0,94.67L-18.92,99.45L-17.48,93.9L-4.7,90.51L-14.27,81.48L-12.83,75.93L1.31,89.11L9.39,91.23L7.95,96.74L0,94.67ZM-0.45,121.18L-16.08,113.45L-5.92,126.5L-7.54,129.8L-24.12,129.71L-8.45,137.43L-10.75,142.04L-33.46,130.84L-30.62,125.15L-13.01,125.01L-23.71,111.06L-20.91,105.37L1.81,116.57L-0.45,121.18ZM-30.08,168.46L-50.08,152.92L-47.69,149.81L-47.65,149.81C-47.65,149.76 -47.6,149.76 -47.6,149.76C-47.6,149.72 -47.56,149.72 -47.56,149.72C-39.88,145.11 -36.45,140.6 -35.77,139.65L-34.64,140.5L-42.95,151.25L-38.43,154.73L-30.94,145.11L-27.32,147.96L-34.82,157.58L-30.21,161.14L-21.63,150.12L-18.02,152.92L-30.08,168.46ZM-43.26,177.4C-43.44,179.03 -43.9,180.65 -44.75,182.19C-45.57,183.77 -46.74,185.21 -48.23,186.52L-56.09,193.52L-72.93,174.6L-64.9,167.47C-63.45,166.16 -61.87,165.21 -60.24,164.58C-58.62,163.94 -56.99,163.67 -55.37,163.72C-53.74,163.76 -52.16,164.17 -50.67,164.89C-49.14,165.61 -47.78,166.65 -46.52,168.05C-45.3,169.45 -44.39,170.94 -43.85,172.52C-43.31,174.1 -43.13,175.73 -43.26,177.4M-70.18,203.41L-74.52,200.07L-84.5,205.99L-83.68,211.36L-88.79,214.39L-92.17,186.98L-87.12,183.99L-64.94,200.3L-70.18,203.41ZM-100.12,217.28C-100.93,218.32 -101.84,219.22 -102.88,219.99C-103.92,220.76 -105,221.34 -106.17,221.75C-107.98,222.43 -109.74,222.7 -111.46,222.61C-113.17,222.52 -114.84,222.16 -116.33,221.43C-117.87,220.71 -119.22,219.72 -120.4,218.45C-121.57,217.19 -122.48,215.65 -123.11,213.94C-123.74,212.22 -124.01,210.5 -123.92,208.79C-123.79,207.07 -123.38,205.45 -122.61,203.91C-121.89,202.38 -120.85,201.07 -119.54,199.89C-118.23,198.72 -116.65,197.81 -114.84,197.14C-113.67,196.73 -112.5,196.46 -111.23,196.37C-109.97,196.28 -108.7,196.32 -107.48,196.55C-106.26,196.78 -105.13,197.14 -104.01,197.68L-105.81,202.51C-106.99,201.83 -108.21,201.38 -109.52,201.25C-110.83,201.11 -112.04,201.2 -113.13,201.61C-114.17,201.97 -115.02,202.51 -115.79,203.23C-116.52,203.91 -117.1,204.72 -117.51,205.67C-117.92,206.62 -118.14,207.61 -118.19,208.65C-118.19,209.74 -118.01,210.82 -117.64,211.9C-117.24,212.94 -116.7,213.89 -116.02,214.7C-115.3,215.47 -114.48,216.1 -113.58,216.56C-112.63,217.01 -111.68,217.28 -110.64,217.37C-109.65,217.46 -108.61,217.28 -107.62,216.92C-106.53,216.56 -105.54,215.88 -104.64,214.97C-103.73,214.07 -102.97,213.03 -102.42,211.86L-98.09,214.03C-98.59,215.2 -99.26,216.28 -100.12,217.28M-133,229.25L-135.8,224.55L-147.27,226.45L-148.44,231.77L-154.31,232.77L-147.54,205.94L-141.76,204.99L-126.99,228.25L-133,229.25ZM-276.52,157.35C-273.45,158.25 -270.29,158.93 -267.04,159.43C-242.6,180.38 -211.22,193.57 -176.89,194.88C-177.75,193.84 -178.52,192.62 -179.2,191.22C-209.77,189.5 -237.82,178.17 -260.4,160.19C-257.69,160.47 -254.93,160.6 -252.13,160.6C-250.37,160.6 -248.88,160.56 -247.89,160.51C-244.23,160.38 -240.53,160.06 -236.91,159.56L-236.37,159.52L-235.29,159.34L-235.47,158.3L-236.91,149.36C-228.2,147.91 -219.39,146.74 -210.45,145.83C-207.97,145.61 -205.48,145.38 -203,145.16C-195.09,147.78 -186.74,149.45 -178.11,150.08C-177.66,151.66 -176.71,154.46 -175.68,155.81C-175,156.72 -175.13,159.38 -175.45,160.96L-175.72,162.27C-177.21,165.89 -178.61,171.39 -178.61,177.45C-178.61,183.32 -177.21,188.24 -175.31,191.4C-174.19,193.25 -172.92,194.47 -171.61,195.01C-171.16,195.19 -170.71,195.28 -170.26,195.28C-169.76,195.28 -169.31,195.19 -168.81,194.97L-168.77,194.97C-167.46,194.38 -166.19,193.12 -165.11,191.31C-163.21,188.15 -161.86,183.27 -161.86,177.45C-161.86,170.63 -163.62,164.39 -165.33,160.83C-165.6,159.25 -165.74,156.72 -165.06,155.81C-164.02,154.46 -163.08,151.57 -162.58,150.03C-153.77,149.31 -145.28,147.55 -137.24,144.75C-134.58,144.93 -132.05,145.16 -129.66,145.38C-116.7,146.51 -107.84,147.91 -104.73,148.45L-106.31,158.12L-106.44,159.11L-105.45,159.34L-105,159.43C-103.1,159.83 -101.16,160.1 -99.22,160.29C-99.13,160.29 -96.55,160.38 -93.8,160.38C-89.28,160.38 -85.04,160.15 -81.15,159.79C-103.42,177.67 -131.06,189.05 -161.22,191.13C-161.9,192.53 -162.67,193.79 -163.48,194.83C-129.57,193.12 -98.63,179.84 -74.52,158.93C-71.13,158.39 -68.01,157.71 -65.17,156.94C-92.58,183.5 -129.97,199.8 -171.07,199.8C-211.94,199.8 -249.15,183.63 -276.52,157.35M-178.97,212.36L-192.48,210.91L-193.06,216.6L-180.96,217.91L-181.41,222.47L-193.56,221.16L-194.19,226.94L-180.28,228.43L-180.78,233.04L-200.33,230.92L-197.67,205.72L-178.48,207.79L-178.97,212.36ZM-214.38,228.48L-219.3,226.9L-213.93,210.28L-225.35,222.25L-228.87,221.12L-231.22,204.72L-236.55,221.34L-241.43,219.76L-233.71,195.65L-227.61,197.59L-224.95,215.02L-212.66,202.42L-206.66,204.36L-214.38,228.48ZM-253.62,213.67L-258.73,211.05L-247.07,188.56L-242.02,191.18L-253.62,213.67ZM-274.35,201.65L-279.05,198.36L-267.31,181.42L-273.63,177.04L-270.97,173.16L-253.58,185.21L-256.24,189.1L-262.61,184.67L-274.35,201.65ZM-297.61,183.23L-280.63,164.39L-276.38,168.23L-293.36,187.07L-297.61,183.23ZM-300.86,166.34C-301.67,166.2 -302.49,165.98 -303.25,165.61L-306.19,175.14L-310.35,170.18L-307.32,162.36C-307.45,162.23 -307.55,162.14 -307.63,162L-311.02,157.94L-316.67,162.63L-320.33,158.21L-302.71,143.53C-300.86,145.34 -298.11,147.6 -294.31,149.85L-293.82,150.44C-291.69,153.01 -290.66,155.45 -290.66,157.85C-290.66,160.19 -291.74,162.27 -293.86,164.08C-296.12,165.93 -298.42,166.7 -300.86,166.34M-329.81,143.94L-326.38,139.74L-331.98,129.58L-337.4,130.25L-340.29,125.06L-312.78,122.44L-309.94,127.54L-326.87,149.27L-329.81,143.94ZM-346.29,109.52L-329.58,104.47L-345.89,101.89L-346.93,98.32L-334.78,87.12L-351.49,92.14L-352.98,87.22L-328.73,79.94L-326.87,86.04L-339.7,98.14L-322.36,101.08L-320.55,107.13L-344.8,114.45L-346.29,109.52ZM-348.23,37.76C-348.14,35.05 -347.92,32.39 -347.74,29.68C-347.38,24.13 -346.65,18.62 -345.57,13.11C-345.07,10.53 -344.67,7.91 -344.08,5.34C-343.58,3.22 -343.04,1.09 -342.36,-1.03C-341.37,-4.33 -340.2,-7.62 -338.89,-10.83C-338.66,-11.28 -338.48,-11.78 -338.21,-12.18C-337.53,-13.4 -336.13,-13.76 -334.73,-13.22C-333.6,-12.77 -333.29,-11.6 -333.6,-10.56C-334.1,-8.89 -334.69,-7.26 -335.14,-5.64C-335.63,-3.83 -336.13,-1.98 -336.54,-0.17C-336.99,1.82 -337.35,3.85 -337.62,5.88C-337.85,7.37 -337.98,8.91 -338.03,10.44C-338.03,11.53 -337.26,12.25 -336.13,12.52C-334.96,12.75 -333.96,12.47 -333.11,11.75C-332.47,11.26 -331.84,10.67 -331.21,10.17C-330.94,9.9 -330.26,9.81 -329.94,10.04C-329.81,10.13 -329.72,10.35 -329.76,10.53C-329.99,11.71 -330.13,12.84 -330.4,14.01C-331.3,17.98 -331.98,22 -332.43,26.07L-332.34,26.07C-332.79,30 -333.02,33.97 -333.06,37.94C-333.11,39.34 -333.24,40.7 -333.29,42.1C-333.33,42.64 -333.42,42.64 -334.01,42.46C-334.64,42.33 -334.96,41.92 -335.23,41.47C-335.63,40.79 -336.09,40.11 -336.72,39.57C-337.62,38.85 -338.66,38.71 -339.74,38.89C-340.74,39.07 -341.37,39.62 -341.6,40.56C-341.73,41.11 -341.69,41.65 -341.73,42.24C-341.96,45.53 -342.05,48.92 -341.91,52.26C-341.82,54.43 -341.55,56.64 -341.37,58.81C-341.19,60.34 -341.14,61.93 -341.01,63.46C-340.96,63.6 -341.01,63.78 -341.05,63.91C-341.42,64.68 -342.82,65.36 -343.76,65.27C-344.67,65.18 -345.71,64.36 -345.98,63.33C-346.43,61.65 -346.79,59.98 -347.02,58.31C-347.33,56.46 -347.42,54.65 -347.6,52.85C-347.87,50.05 -348.05,47.29 -348.14,44.54C-348.23,42.28 -348.28,40.02 -348.23,37.76M-333.69,-41.4L-316.13,-40.05L-325.61,-54.86L-322.31,-60.28L-300.64,-47.23L-303.3,-42.8L-318.25,-51.83L-309.22,-37.97L-311.11,-34.81L-327.6,-36.3L-312.65,-27.27L-315.31,-22.89L-336.99,-35.98L-333.69,-41.4ZM-304.52,-80.92L-278.64,-71.57L-282.8,-67.14L-287.86,-69.09L-295.8,-60.6L-293.45,-55.67L-297.52,-51.29L-308.54,-76.63L-304.52,-80.92ZM-286.27,-97.04C-285.51,-98.4 -284.29,-99.7 -282.75,-100.88C-281.31,-101.96 -279.77,-102.78 -278.15,-103.41C-276.47,-104 -274.89,-104.36 -273.4,-104.45L-272.41,-99.48C-273.45,-99.39 -274.44,-99.21 -275.44,-98.94C-276.43,-98.67 -277.33,-98.35 -278.15,-97.94C-279,-97.58 -279.68,-97.18 -280.22,-96.77C-280.99,-96.18 -281.53,-95.55 -281.76,-94.92C-281.98,-94.24 -281.89,-93.65 -281.44,-93.02C-281.04,-92.48 -280.49,-92.16 -279.82,-92.12C-279.14,-92.07 -278.42,-92.16 -277.6,-92.43C-276.84,-92.71 -275.93,-92.98 -275.03,-93.34C-274.08,-93.74 -273.13,-94.06 -272.14,-94.33C-271.15,-94.6 -270.2,-94.78 -269.2,-94.83C-268.21,-94.87 -267.26,-94.69 -266.36,-94.24C-265.46,-93.83 -264.6,-93.11 -263.78,-92.07C-262.84,-90.76 -262.34,-89.41 -262.34,-87.96C-262.34,-86.52 -262.75,-85.12 -263.6,-83.72C-264.42,-82.36 -265.59,-81.1 -267.08,-79.97C-268.16,-79.11 -269.38,-78.43 -270.65,-77.89C-271.96,-77.31 -273.22,-76.94 -274.58,-76.72C-275.89,-76.49 -277.2,-76.4 -278.46,-76.45L-279.36,-81.41C-278.19,-81.32 -277.02,-81.37 -275.84,-81.55C-274.62,-81.73 -273.54,-82 -272.5,-82.41C-271.46,-82.77 -270.6,-83.27 -269.88,-83.76C-268.93,-84.49 -268.35,-85.25 -268.07,-86.02C-267.85,-86.79 -267.98,-87.51 -268.48,-88.14C-268.93,-88.73 -269.47,-89.05 -270.11,-89.09C-270.74,-89.18 -271.46,-89.09 -272.27,-88.82C-273.13,-88.6 -273.99,-88.28 -274.89,-87.92C-275.84,-87.51 -276.79,-87.15 -277.74,-86.88C-278.73,-86.56 -279.73,-86.38 -280.67,-86.34C-281.62,-86.29 -282.57,-86.43 -283.47,-86.83C-284.38,-87.2 -285.24,-87.92 -286,-88.96C-286.95,-90.18 -287.4,-91.49 -287.45,-92.89C-287.49,-94.24 -287.09,-95.64 -286.27,-97.04M-263.51,-109.73C-263.29,-111.09 -262.7,-112.4 -261.71,-113.61C-260.67,-114.88 -259.31,-115.92 -257.6,-116.87C-256.02,-117.68 -254.35,-118.27 -252.63,-118.63C-250.87,-118.94 -249.29,-119.03 -247.8,-118.9L-247.57,-113.84C-248.66,-113.93 -249.69,-113.89 -250.69,-113.8C-251.73,-113.66 -252.63,-113.48 -253.53,-113.25C-254.39,-113.03 -255.16,-112.76 -255.75,-112.4C-256.6,-111.94 -257.24,-111.45 -257.55,-110.81C-257.91,-110.23 -257.91,-109.6 -257.55,-108.92C-257.24,-108.29 -256.74,-107.92 -256.11,-107.74C-255.43,-107.61 -254.71,-107.56 -253.89,-107.7C-253.04,-107.83 -252.13,-108.01 -251.14,-108.2C-250.15,-108.42 -249.15,-108.6 -248.16,-108.69C-247.17,-108.83 -246.17,-108.83 -245.18,-108.74C-244.18,-108.6 -243.28,-108.24 -242.47,-107.7C-241.61,-107.16 -240.89,-106.3 -240.3,-105.12C-239.53,-103.68 -239.26,-102.28 -239.49,-100.83C-239.71,-99.43 -240.39,-98.12 -241.43,-96.9C-242.47,-95.64 -243.82,-94.6 -245.45,-93.7C-246.67,-93.07 -247.98,-92.57 -249.33,-92.21C-250.69,-91.89 -252.04,-91.71 -253.4,-91.71C-254.71,-91.67 -256.02,-91.8 -257.24,-92.07L-257.33,-97.13C-256.2,-96.81 -255.07,-96.68 -253.85,-96.68C-252.63,-96.63 -251.5,-96.77 -250.42,-97C-249.33,-97.18 -248.38,-97.54 -247.62,-97.94C-246.58,-98.49 -245.86,-99.12 -245.49,-99.84C-245.13,-100.56 -245.13,-101.29 -245.54,-102.05C-245.86,-102.69 -246.35,-103.09 -246.98,-103.23C-247.62,-103.36 -248.34,-103.41 -249.2,-103.32C-250.06,-103.18 -250.96,-103.05 -251.91,-102.78C-252.9,-102.55 -253.89,-102.37 -254.89,-102.23C-255.93,-102.1 -256.92,-102.05 -257.87,-102.19C-258.82,-102.28 -259.72,-102.6 -260.53,-103.09C-261.39,-103.63 -262.11,-104.45 -262.7,-105.62C-263.42,-106.98 -263.69,-108.33 -263.51,-109.73M-231,-127.84L-225.44,-129.65L-207.33,-108.92L-213.11,-107.02L-216.59,-111.22L-227.66,-107.61L-228.02,-102.19L-233.66,-100.34L-231,-127.84ZM-206.02,-127.16C-205.53,-128.79 -204.8,-130.28 -203.72,-131.63C-202.68,-132.94 -201.37,-134.07 -199.88,-134.93C-198.35,-135.79 -196.63,-136.38 -194.69,-136.65C-193.47,-136.78 -192.25,-136.78 -190.99,-136.65C-189.77,-136.47 -188.55,-136.15 -187.42,-135.7C-186.24,-135.2 -185.2,-134.61 -184.26,-133.85L-187.01,-129.51C-187.96,-130.41 -189.09,-131.09 -190.35,-131.5C-191.62,-131.95 -192.79,-132.09 -193.97,-131.9C-195.05,-131.77 -196.04,-131.41 -196.9,-130.87C-197.76,-130.37 -198.48,-129.69 -199.11,-128.83C-199.7,-128.02 -200.11,-127.07 -200.38,-126.08C-200.6,-125.04 -200.65,-123.96 -200.51,-122.78C-200.33,-121.65 -200.02,-120.66 -199.48,-119.71C-198.98,-118.76 -198.3,-117.99 -197.53,-117.36C-196.72,-116.73 -195.82,-116.28 -194.82,-116.01C-193.88,-115.69 -192.84,-115.65 -191.75,-115.78C-190.62,-115.92 -189.49,-116.37 -188.41,-117.05C-187.37,-117.77 -186.42,-118.63 -185.66,-119.67L-181.82,-116.64C-182.59,-115.6 -183.49,-114.65 -184.48,-113.84C-185.52,-113.03 -186.6,-112.35 -187.78,-111.81C-188.95,-111.27 -190.13,-110.9 -191.35,-110.77C-193.24,-110.5 -195.05,-110.59 -196.72,-111.04C-198.39,-111.45 -199.88,-112.17 -201.24,-113.21C-202.59,-114.25 -203.72,-115.47 -204.58,-116.96C-205.48,-118.45 -206.07,-120.12 -206.29,-121.97C-206.57,-123.78 -206.48,-125.49 -206.02,-127.16M-174.19,-138.09L-168.45,-137.82L-168.95,-127.21L-157.48,-126.67L-157.02,-137.32L-151.29,-137.05L-152.42,-111.76L-158.15,-111.99L-157.7,-122.1L-169.13,-122.6L-169.58,-112.53L-175.31,-112.76L-174.19,-138.09ZM-142.44,-120.84L-138.96,-135.34L-133.41,-133.98L-136.84,-119.49C-137.29,-117.68 -137.11,-116.14 -136.34,-114.83C-135.62,-113.57 -134.4,-112.71 -132.77,-112.35C-131.15,-111.94 -129.75,-112.17 -128.53,-112.98C-127.31,-113.8 -126.5,-115.1 -126.04,-116.91L-122.57,-131.41L-117.01,-130.1L-120.49,-115.6C-120.99,-113.43 -121.89,-111.72 -123.15,-110.32C-124.37,-108.96 -125.95,-108.01 -127.76,-107.56C-129.61,-107.11 -131.64,-107.11 -133.9,-107.65C-136.16,-108.2 -138.01,-109.1 -139.46,-110.36C-140.9,-111.58 -141.9,-113.12 -142.39,-114.92C-142.93,-116.73 -142.93,-118.67 -142.44,-120.84M-112.18,-110.27C-111.68,-109.23 -111.05,-108.24 -110.33,-107.29C-109.61,-106.34 -108.79,-105.49 -107.93,-104.81C-107.12,-104.09 -106.26,-103.54 -105.45,-103.18C-104.37,-102.73 -103.42,-102.6 -102.65,-102.73C-101.84,-102.87 -101.3,-103.36 -100.93,-104.13C-100.66,-104.81 -100.66,-105.44 -100.93,-106.03C-101.21,-106.61 -101.61,-107.2 -102.24,-107.79C-102.83,-108.38 -103.55,-108.96 -104.32,-109.6C-105.13,-110.23 -105.9,-110.86 -106.63,-111.58C-107.39,-112.3 -108.02,-113.03 -108.52,-113.84C-109.02,-114.65 -109.33,-115.56 -109.47,-116.55C-109.61,-117.5 -109.38,-118.58 -108.88,-119.8C-108.25,-121.2 -107.35,-122.29 -106.17,-122.96C-104.95,-123.69 -103.55,-124 -101.97,-124C-100.35,-123.96 -98.68,-123.59 -96.87,-122.78C-95.24,-122.1 -93.75,-121.16 -92.4,-120.03C-91.04,-118.85 -89.96,-117.68 -89.15,-116.41L-92.99,-113.12C-93.57,-113.98 -94.25,-114.74 -94.97,-115.47C-95.7,-116.19 -96.42,-116.82 -97.14,-117.36C-97.86,-117.9 -98.59,-118.31 -99.22,-118.58C-100.08,-118.99 -100.89,-119.12 -101.57,-119.03C-102.24,-118.9 -102.74,-118.49 -103.06,-117.81C-103.33,-117.18 -103.33,-116.55 -103.06,-115.96C-102.79,-115.33 -102.33,-114.74 -101.7,-114.2C-101.12,-113.61 -100.39,-113.03 -99.62,-112.35C-98.86,-111.72 -98.09,-111.04 -97.37,-110.36C-96.64,-109.64 -96.01,-108.87 -95.52,-108.01C-94.97,-107.16 -94.66,-106.25 -94.61,-105.26C-94.52,-104.27 -94.75,-103.18 -95.24,-101.96C-95.92,-100.47 -96.87,-99.39 -98.09,-98.67C-99.35,-97.99 -100.8,-97.67 -102.42,-97.72C-104.05,-97.76 -105.68,-98.12 -107.39,-98.89C-108.7,-99.43 -109.88,-100.16 -111.01,-100.97C-112.09,-101.83 -113.08,-102.78 -113.94,-103.81C-114.75,-104.85 -115.48,-105.94 -116.02,-107.07L-112.18,-110.27ZM-62.37,-102.82L-64.9,-98.98L-76.28,-106.34L-79.39,-101.56L-69.14,-94.92L-71.63,-91.08L-81.88,-97.67L-85.04,-92.8L-73.3,-85.21L-75.78,-81.32L-92.35,-92.03L-78.58,-113.3L-62.37,-102.82ZM-55.1,-97.31L-39.38,-83.18L-42.54,-79.65L-48.28,-84.85L-62.1,-69.54L-66.34,-73.33L-52.52,-88.69L-58.26,-93.83L-55.1,-97.31ZM-34.46,-77.98L-21.05,-61.59L-24.66,-58.61L-29.58,-64.61L-45.52,-51.56L-49.18,-55.99L-33.19,-69.04L-38.07,-75L-34.46,-77.98ZM-193.06,144.48C-184.53,143.98 -175.9,143.71 -167.23,143.71C-160,143.71 -153.23,143.89 -147,144.21C-154.59,146.06 -162.49,147.05 -170.66,147.05C-178.39,147.05 -185.88,146.2 -193.06,144.48M-170.75,180.88C-170.75,185.39 -171.79,189.05 -173.1,189.05C-174.41,189.05 -175.45,185.39 -175.45,180.88C-175.45,176.41 -174.41,172.75 -173.1,172.75C-171.79,172.75 -170.75,176.41 -170.75,180.88M-172.38,157.3L-174.1,153.47L-174.95,150.89L-170.66,150.44L-170.66,157.3L-172.38,157.3ZM-27.59,56.28C-29.36,86.58 -40.55,114.36 -58.3,136.76C-60.2,137.25 -62.05,137.61 -63.9,137.89C-63.68,138.2 -63.45,138.56 -63.27,138.88C-62.01,138.65 -60.74,138.38 -59.39,138.07C-52.69,136.5 -46.29,133.99 -40.28,130.66L-35,127.72L-45.21,139.42L-35.05,136.58C-35.05,136.58 -36.54,138.92 -36.58,139.01C-36.72,139.15 -36.94,139.51 -37.3,139.92C-38.48,141.45 -41.14,144.3 -45.75,147.37C-53.47,152.52 -62.6,155.62 -71.67,157.36C-77.24,158.43 -82.91,158.99 -88.59,159.2C-94,159.41 -99.45,159.56 -104.77,158.39L-105.27,158.3L-103.51,147.6C-104.14,147.46 -105.45,147.23 -107.3,146.96C-124.11,144.5 -141.07,143.14 -158.06,142.77C-175.4,142.4 -192.76,143.07 -210.03,144.78C-219.43,145.71 -228.81,146.94 -238.13,148.5C-237.59,151.82 -237.04,155.15 -236.5,158.48C-248.04,159.93 -259.83,159.98 -271.21,157.59C-278.14,156.14 -284.89,153.78 -291.11,150.41C-296.36,147.56 -301.88,144.06 -305.24,139.01L-306.73,136.71L-296.57,139.56L-306.78,127.86L-301.49,130.8C-295.58,134.02 -289.27,136.59 -282.71,138.16C-280.81,138.61 -279,138.92 -277.2,139.2C-277.02,138.88 -276.84,138.52 -276.61,138.2C-279,137.93 -281.4,137.43 -283.79,136.8C-301.45,114.49 -312.65,86.85 -314.54,56.73C-315.99,56.05 -317.25,55.29 -318.25,54.43C-316.89,84.51 -306.46,112.23 -289.66,135C-292.55,134 -295.4,132.74 -298.24,131.29C-314.23,107.22 -323.53,78.32 -323.53,47.34C-323.53,-36.71 -255.11,-105.12 -171.07,-105.12C-86.98,-105.12 -18.61,-36.71 -18.61,47.34C-18.61,78.36 -27.95,107.27 -43.94,131.38C-46.79,132.83 -49.63,134 -52.48,135C-35.63,112.19 -25.2,84.37 -23.89,54.2C-24.97,54.97 -26.19,55.69 -27.59,56.28M-17.88,-51.38C-16.53,-51.25 -15.17,-50.71 -13.91,-49.76C-12.65,-48.76 -11.52,-47.45 -10.52,-45.78C-9.62,-44.25 -8.94,-42.58 -8.54,-40.86C-8.17,-39.14 -7.99,-37.56 -8.04,-36.07L-13.1,-35.67C-13.1,-36.71 -13.14,-37.74 -13.32,-38.74C-13.46,-39.78 -13.68,-40.68 -13.96,-41.58C-14.23,-42.44 -14.54,-43.16 -14.86,-43.75C-15.35,-44.61 -15.9,-45.2 -16.53,-45.51C-17.16,-45.83 -17.79,-45.78 -18.43,-45.42C-19.06,-45.06 -19.42,-44.56 -19.56,-43.89C-19.69,-43.25 -19.69,-42.53 -19.51,-41.67C-19.33,-40.86 -19.15,-39.96 -18.88,-38.96C-18.65,-38.02 -18.43,-37.02 -18.29,-36.03C-18.11,-34.99 -18.06,-34 -18.16,-33.05C-18.2,-32.05 -18.52,-31.15 -19.06,-30.29C-19.56,-29.43 -20.37,-28.67 -21.5,-28.03C-22.94,-27.18 -24.34,-26.86 -25.79,-27.04C-27.19,-27.22 -28.54,-27.81 -29.81,-28.8C-31.12,-29.8 -32.2,-31.11 -33.15,-32.69C-33.87,-33.91 -34.41,-35.17 -34.77,-36.53C-35.18,-37.83 -35.41,-39.19 -35.5,-40.54C-35.54,-41.9 -35.5,-43.16 -35.27,-44.43L-30.21,-44.7C-30.48,-43.57 -30.57,-42.4 -30.53,-41.22C-30.48,-40 -30.35,-38.87 -30.08,-37.79C-29.81,-36.71 -29.45,-35.8 -28.99,-35.03C-28.41,-34 -27.77,-33.32 -27.01,-33C-26.28,-32.64 -25.56,-32.69 -24.84,-33.14C-24.21,-33.5 -23.85,-34 -23.71,-34.63C-23.57,-35.26 -23.57,-35.98 -23.71,-36.84C-23.85,-37.65 -24.07,-38.56 -24.34,-39.55C-24.61,-40.5 -24.84,-41.49 -25.02,-42.49C-25.2,-43.48 -25.25,-44.47 -25.2,-45.47C-25.11,-46.42 -24.84,-47.32 -24.39,-48.18C-23.89,-49.03 -23.08,-49.76 -21.95,-50.43C-20.64,-51.2 -19.28,-51.52 -17.88,-51.38M-3.07,5.88C-3.34,3.85 -3.7,1.82 -4.16,-0.17C-4.56,-1.98 -5.01,-3.83 -5.56,-5.64C-6.01,-7.26 -6.59,-8.89 -7.05,-10.56C-7.36,-11.6 -7.09,-12.77 -5.92,-13.22C-4.56,-13.76 -3.16,-13.4 -2.48,-12.18C-2.21,-11.78 -1.99,-11.28 -1.81,-10.83C-0.5,-7.62 0.68,-4.33 1.72,-1.03C2.35,1.09 2.93,3.22 3.39,5.34C4.02,7.91 4.38,10.53 4.88,13.11C5.96,18.62 6.68,24.13 7.04,29.68C7.23,32.39 7.45,35.05 7.54,37.76C7.59,40.02 7.54,42.28 7.5,44.54C7.36,47.29 7.18,50.05 6.91,52.85C6.73,54.65 6.64,56.46 6.37,58.31C6.1,59.98 5.73,61.65 5.28,63.33C5.01,64.36 3.97,65.18 3.07,65.27C2.12,65.36 0.72,64.68 0.36,63.91C0.32,63.78 0.32,63.6 0.32,63.46C0.45,61.93 0.54,60.34 0.68,58.81C0.9,56.64 1.13,54.43 1.22,52.26C1.35,48.92 1.26,45.53 1.04,42.24C1.04,41.65 1.04,41.11 0.9,40.56C0.72,39.62 0.04,39.07 -0.95,38.89C-2.03,38.71 -3.07,38.85 -3.93,39.57C-4.61,40.11 -5.06,40.79 -5.46,41.47C-5.74,41.92 -6.05,42.33 -6.68,42.46C-7.27,42.64 -7.36,42.64 -7.36,42.1C-7.45,40.7 -7.59,39.34 -7.63,37.94C-7.68,33.97 -7.9,30 -8.36,26.07L-8.26,26.07C-8.67,22 -9.39,17.98 -10.3,14.01C-10.52,12.84 -10.7,11.71 -10.93,10.53C-10.97,10.35 -10.88,10.13 -10.75,10.04C-10.43,9.81 -9.76,9.9 -9.48,10.17C-8.85,10.67 -8.22,11.26 -7.59,11.75C-6.73,12.47 -5.74,12.75 -4.56,12.52C-3.43,12.25 -2.62,11.53 -2.67,10.44C-2.71,8.91 -2.85,7.37 -3.07,5.88M-171.07,-146.09C-277.69,-146.09 -364.49,-59.29 -364.49,47.34C-364.49,154.01 -277.69,240.76 -171.07,240.76C-64.4,240.76 22.35,154.01 22.35,47.34C22.35,-59.29 -64.4,-146.09 -171.07,-146.09" style="fill:rgb(23,56,99);fill-rule:nonzero;"/>
    </g>
    <g transform="matrix(1,0,0,1,346.503,316.063)">
        <path d="M0,-7.36C-2.08,-5.19 -5.74,-2.03 -11.52,0.95C-13.87,2.17 -16.76,3.48 -20.19,4.61L-20.24,4.65C-20.82,4.83 -21.41,5.06 -22,5.24C-20.87,3.57 -20.15,0.99 -20.6,-2.17C-20.73,-3.48 -21.09,-4.83 -21.73,-6.28C-21.78,-6.43 -21.83,-6.58 -21.87,-6.74C-19.31,-7.23 -17.14,-7.78 -15.45,-8.26C-11.64,-9.35 -8.79,-10.54 -7.09,-11.2C-6.06,-11.61 -4.93,-12.1 -3.84,-12.6L-11.11,-4.29L0,-7.36Z" style="fill:rgb(23,56,99);fill-rule:nonzero;"/>
    </g>
    <g transform="matrix(1,0,0,1,108.773,303.603)">
        <path d="M0,18.2C-1.08,17.88 -2.08,17.56 -3.07,17.2C-3.25,17.16 -3.39,17.11 -3.52,17.07C-8.95,15.03 -14.75,12.55 -19.24,8.8C-20.95,7.49 -22.26,6.27 -23.26,5.23L-12.19,8.31C-14.63,5.54 -17.07,2.78 -19.5,0C-14.53,2.32 -9.41,3.91 -4.11,5.23C-3.57,5.37 -2.98,5.51 -2.44,5.6C-1.67,5.78 -0.9,5.91 -0.14,6C-0.41,6.5 -0.63,7 -0.81,7.49C-1.4,9.03 -1.72,10.52 -1.76,11.83C-1.94,14.31 -1.35,16.34 -0.27,17.74C-0.23,17.83 -0.14,17.92 -0.09,18.02C-0.09,18.06 -0.05,18.15 0,18.2" style="fill:rgb(23,56,99);fill-rule:nonzero;"/>
    </g>
    <g transform="matrix(1,0,0,1,202.163,296.153)">
        <path d="M0,8.03C-0.36,8.44 -0.81,8.67 -1.4,8.71C-1.94,8.71 -2.39,8.53 -2.84,8.17C-3.25,7.76 -3.48,7.31 -3.48,6.77C-3.52,6.18 -3.34,5.68 -2.93,5.28C-2.57,4.87 -2.08,4.65 -1.53,4.65C-0.99,4.6 -0.54,4.78 -0.09,5.19C0.32,5.55 0.54,6.05 0.54,6.59C0.59,7.13 0.41,7.63 0,8.03M-9.12,8.21L-9.07,8.85L-12.69,9.07L-12.82,7.18L-13.59,-5.15L-19.46,-4.79L-19.64,-7.95L-4.33,-8.95L-4.15,-5.74L-9.98,-5.38L-9.12,8.21ZM-21.27,6.99L-21.31,7.04C-21.31,7.13 -21.36,7.22 -21.4,7.31C-21.67,7.76 -21.99,8.17 -22.4,8.53L-22.44,8.53C-22.8,8.89 -23.26,9.21 -23.75,9.48C-24.61,9.98 -25.69,10.29 -26.87,10.47C-27.09,10.52 -27.32,10.56 -27.55,10.56C-28.99,10.7 -30.35,10.61 -31.75,10.2C-33.15,9.84 -34.41,9.21 -35.54,8.35L-34.46,6.68L-33.78,5.59C-32.65,6.36 -31.61,6.9 -30.66,7.22C-29.67,7.49 -28.68,7.58 -27.64,7.49C-26.91,7.4 -26.28,7.27 -25.78,7.04C-25.29,6.81 -24.88,6.54 -24.61,6.18C-24.52,6.05 -24.43,5.87 -24.39,5.68C-24.29,5.46 -24.25,5.23 -24.29,4.96C-24.39,4.38 -24.66,3.92 -25.11,3.65C-25.56,3.38 -26.33,3.2 -27.37,3.11L-30.07,2.93L-30.12,2.93L-30.89,2.88C-32.38,2.79 -33.55,2.39 -34.41,1.67C-35,1.17 -35.36,0.58 -35.58,-0.14C-35.58,-0.14 -35.63,-0.19 -35.63,-0.23C-35.77,-0.55 -35.81,-0.91 -35.86,-1.27C-35.95,-1.86 -35.9,-2.44 -35.77,-2.99C-35.77,-3.08 -35.77,-3.17 -35.72,-3.26C-35.72,-3.3 -35.68,-3.35 -35.68,-3.39C-35.58,-3.66 -35.45,-3.93 -35.31,-4.16C-34.86,-5.02 -34.14,-5.7 -33.15,-6.24C-32.2,-6.78 -30.98,-7.1 -29.58,-7.23C-28.31,-7.37 -27.05,-7.28 -25.74,-7.01C-25.69,-7.01 -25.69,-7.01 -25.65,-6.96C-25.38,-6.92 -25.15,-6.87 -24.93,-6.73C-24.57,-6.69 -24.25,-6.55 -23.93,-6.42C-23.71,-6.33 -23.48,-6.24 -23.26,-6.1C-22.89,-5.97 -22.53,-5.79 -22.17,-5.56L-23.8,-2.72L-23.84,-2.67C-24.07,-2.81 -24.29,-2.94 -24.52,-3.03C-24.84,-3.26 -25.2,-3.39 -25.51,-3.48C-25.74,-3.62 -25.97,-3.71 -26.19,-3.8C-27.32,-4.16 -28.45,-4.3 -29.53,-4.21C-30.17,-4.12 -30.71,-3.98 -31.2,-3.75C-31.66,-3.57 -32.02,-3.3 -32.24,-2.99C-32.47,-2.67 -32.56,-2.31 -32.51,-1.9C-32.51,-1.72 -32.42,-1.54 -32.33,-1.36C-32.24,-1.09 -32.02,-0.91 -31.79,-0.73C-31.47,-0.55 -31.07,-0.41 -30.53,-0.32L-30.48,-0.32C-30.3,-0.32 -30.07,-0.28 -29.85,-0.28L-26.69,-0.1L-26.51,-0.1C-26.33,-0.1 -26.15,-0.05 -25.97,-0.05C-25.6,-0.01 -25.24,0.04 -24.93,0.13C-24.7,0.17 -24.47,0.22 -24.25,0.31C-23.53,0.49 -22.94,0.81 -22.44,1.17C-21.49,1.89 -20.95,2.93 -20.82,4.28L-20.82,4.33C-20.73,5.32 -20.86,6.18 -21.27,6.99M-39.02,11.6L-50.71,13.32L-52.29,2.48L-52.93,-1.9L-53.24,-3.89L-50.22,-4.34L-45.43,-5.02L-43.13,-5.38L-40.01,-5.83L-39.56,-2.76L-39.6,-2.76L-41.95,-2.4L-46.92,-1.68L-49.22,-1.32L-48.86,1.03L-48.64,2.61L-47.1,2.39L-42.4,1.67L-42.27,1.67L-42.27,1.8L-41.82,4.69L-43.44,4.92L-43.49,4.92L-48.14,5.64L-48.18,5.64L-47.6,9.7L-43.22,9.07L-38.2,8.3L-37.84,8.26L-37.8,8.53L-37.39,11.37L-39.02,11.6ZM12.74,11.1L12.06,8.48L12.06,8.44L7.68,-9.04C7.45,-9.22 7.23,-9.4 6.96,-9.58C6.6,-9.81 6.28,-10.03 5.92,-10.3C5.42,-10.66 4.88,-11.02 4.38,-11.39C4.07,-11.61 3.8,-11.84 3.48,-12.06C3.3,-12.2 3.21,-12.29 3.03,-12.42L2.98,-12.42C-0.09,-12.38 -3.11,-12.24 -6.23,-12.06L-6.28,-12.06C-28.25,-10.91 -50.13,-8.5 -71.85,-4.97L-71.89,-4.97C-70.21,2.54 -68.45,10.03 -66.65,17.52L-65.98,20.45C-63.86,20 -59.93,19.19 -54.37,18.24C-36.97,15.27 -19.39,13.38 -1.76,12.5L-1.53,12.5C3.16,12.28 8,12.14 12.96,12.05L12.74,11.1Z" style="fill:rgb(23,56,99);fill-rule:nonzero;"/>
    </g>
    <g transform="matrix(1,0,0,1,282.013,305.143)">
        <path d="M0,-10.31L-0.64,-5.56L-0.68,-5.56L-1.95,3.56L-5.33,3.06L-4.52,-2.63L-3.84,-7.23L-3.35,-10.76L-5.29,-10.26L-5.33,-10.22L-6.96,-9.81L-6.51,-12.79L-1.63,-14.01L-0.91,-13.92L-0.86,-13.92L0.49,-13.69L0,-10.31ZM-10.3,-6.83C-10.3,-6.74 -10.3,-6.69 -10.35,-6.6C-10.57,-4.84 -11.07,-3.31 -11.88,-2.04C-12.02,-1.81 -12.15,-1.59 -12.33,-1.41L-12.38,-1.36C-13.1,-0.37 -14,0.4 -15.13,0.89C-15.9,1.3 -16.76,1.53 -17.62,1.62L-17.66,1.62C-18.25,1.71 -18.88,1.71 -19.56,1.62C-20.46,1.53 -21.32,1.26 -22.22,0.85C-22.45,0.76 -22.63,0.67 -22.81,0.53C-23.4,0.22 -23.89,-0.19 -24.3,-0.6L-22.22,-2.76C-21.77,-2.36 -21.32,-2 -20.78,-1.77C-20.28,-1.54 -19.78,-1.41 -19.2,-1.32L-19.15,-1.32C-19.11,-1.27 -19.06,-1.27 -19.02,-1.27C-17.98,-1.18 -17.07,-1.32 -16.35,-1.77C-15.58,-2.18 -14.95,-2.85 -14.5,-3.8C-14.5,-3.85 -14.45,-3.89 -14.45,-3.94C-13.96,-4.8 -13.69,-5.88 -13.51,-7.19C-14.18,-6.47 -14.95,-5.92 -15.81,-5.61C-16.62,-5.25 -17.53,-5.11 -18.43,-5.2C-18.7,-5.25 -18.97,-5.29 -19.2,-5.38C-19.38,-5.38 -19.6,-5.43 -19.78,-5.52C-19.96,-5.52 -20.15,-5.61 -20.28,-5.7L-20.33,-5.7C-20.69,-5.83 -21.05,-5.97 -21.36,-6.2C-21.46,-6.24 -21.5,-6.29 -21.55,-6.33C-22.27,-6.87 -22.86,-7.55 -23.22,-8.27C-23.26,-8.32 -23.26,-8.41 -23.26,-8.45C-23.62,-9.27 -23.76,-10.17 -23.67,-11.12C-23.53,-12.2 -23.17,-13.15 -22.54,-13.96C-21.91,-14.78 -21.09,-15.36 -20.05,-15.77C-19.06,-16.18 -17.98,-16.31 -16.8,-16.18C-15.31,-16 -14.09,-15.5 -13.06,-14.73C-13.06,-14.69 -13.01,-14.69 -13.01,-14.69C-12.38,-14.14 -11.84,-13.47 -11.38,-12.7C-11.38,-12.7 -11.34,-12.7 -11.34,-12.65C-11.11,-12.29 -10.93,-11.84 -10.75,-11.39C-10.71,-11.21 -10.62,-11.03 -10.62,-10.8C-10.26,-9.63 -10.16,-8.27 -10.3,-6.83M-27.69,-12.34L-27.69,-12.25C-27.82,-11.43 -28.09,-10.71 -28.68,-10.08C-29.27,-9.45 -30.04,-9 -30.94,-8.72C-29.9,-8.36 -29.09,-7.78 -28.5,-7.01C-27.91,-6.2 -27.64,-5.34 -27.69,-4.34C-27.73,-3.98 -27.78,-3.62 -27.91,-3.26C-28.05,-2.72 -28.32,-2.22 -28.73,-1.77C-29.31,-1.05 -30.13,-0.51 -31.16,-0.1C-32.2,0.26 -33.38,0.4 -34.64,0.31C-35.18,0.26 -35.73,0.17 -36.22,0.04C-36.27,0.08 -36.27,0.04 -36.31,0.04C-36.94,-0.1 -37.53,-0.32 -38.03,-0.6C-38.98,-1.09 -39.75,-1.72 -40.24,-2.54C-40.74,-3.35 -40.96,-4.25 -40.92,-5.25C-40.87,-5.92 -40.69,-6.51 -40.33,-7.01C-40.02,-7.55 -39.56,-8 -39.02,-8.36C-38.44,-8.77 -37.8,-9 -37.13,-9.18C-37.98,-9.54 -38.66,-10.08 -39.16,-10.8C-39.65,-11.52 -39.88,-12.29 -39.84,-13.15C-39.75,-14.05 -39.43,-14.87 -38.84,-15.59C-38.3,-16.27 -37.53,-16.81 -36.58,-17.17C-35.64,-17.58 -34.6,-17.71 -33.42,-17.62C-32.29,-17.53 -31.25,-17.26 -30.4,-16.76C-29.49,-16.27 -28.82,-15.63 -28.32,-14.87C-28.18,-14.6 -28.05,-14.32 -28,-14.05C-27.73,-13.51 -27.64,-12.92 -27.69,-12.34M-44.89,-0.55L-48.28,-0.69L-47.78,-14.64L-51.26,-13.33L-51.13,-16.31L-46.43,-18.03L-44.26,-17.94L-44.89,-0.55ZM22.55,-14.27C22.03,-14.39 21.41,-14.54 20.68,-14.69C20.14,-14.82 19.55,-14.91 18.87,-15.05C17.74,-15.27 16.48,-15.5 15.04,-15.77C14.81,-15.81 14.54,-15.86 14.27,-15.91C-3.35,-18.83 -21.09,-20.63 -38.93,-21.37C-43.85,-21.55 -49.05,-21.69 -54.47,-21.73C-54.74,-21.46 -55.05,-21.28 -55.33,-21.05C-55.6,-20.78 -55.91,-20.56 -56.23,-20.38C-56.73,-19.97 -57.22,-19.61 -57.72,-19.29C-58.31,-18.84 -58.85,-18.43 -59.43,-18.07L-64.72,3.06C-63.41,3.02 -62.1,3.02 -60.79,3.02C-38.06,3.02 -15.22,4.92 7.1,9.28C11.948,10.227 16.59,11.31 16.59,11.31C16.812,11.362 16.988,11.403 17.06,11.42C18.004,7.649 18.944,3.866 19.88,0.07C21.048,-4.668 22.201,-9.391 23.34,-14.1C23.1,-14.15 22.84,-14.2 22.55,-14.27" style="fill:rgb(23,56,99);fill-rule:nonzero;"/>
    </g>
    <g transform="matrix(1,0,0,1,250.714,301.252)">
        <path d="M0,-2.304C0.271,-1.897 0.361,-1.446 0.361,-0.904C0.316,-0.407 0.136,0.044 -0.181,0.406C-0.497,0.812 -0.904,1.083 -1.4,1.264C-1.897,1.444 -2.484,1.535 -3.162,1.49C-3.794,1.444 -4.38,1.309 -4.878,1.038C-5.374,0.767 -5.736,0.451 -6.007,-0.001C-6.233,-0.407 -6.368,-0.859 -6.323,-1.356C-6.278,-1.897 -6.097,-2.304 -5.781,-2.71C-5.509,-3.072 -5.059,-3.388 -4.561,-3.568C-4.02,-3.749 -3.432,-3.839 -2.8,-3.794C-2.168,-3.749 -1.581,-3.614 -1.084,-3.343C-0.633,-3.072 -0.226,-2.71 0,-2.304" style="fill:rgb(23,56,99);fill-rule:nonzero;"/>
    </g>
    <g transform="matrix(1,0,0,1,250.804,293.664)">
        <path d="M0,-2.123C0.225,-1.716 0.361,-1.31 0.316,-0.813C0.271,-0.362 0.135,0.045 -0.136,0.361C-0.407,0.722 -0.768,0.993 -1.219,1.174C-1.671,1.354 -2.168,1.4 -2.755,1.4C-3.297,1.354 -3.749,1.219 -4.2,0.948C-4.606,0.722 -4.923,0.406 -5.149,0.045C-5.374,-0.316 -5.465,-0.768 -5.465,-1.22C-5.42,-1.716 -5.285,-2.123 -5.013,-2.484C-4.742,-2.8 -4.381,-3.071 -3.93,-3.252C-3.432,-3.433 -2.936,-3.523 -2.394,-3.478C-1.852,-3.433 -1.355,-3.297 -0.949,-3.071C-0.542,-2.8 -0.181,-2.484 0,-2.123" style="fill:rgb(23,56,99);fill-rule:nonzero;"/>
    </g>
    <g transform="matrix(1,0,0,1,94.9814,373.783)">
        <path d="M0,-315.566L-16.365,-316.876C-17.887,-316.58 -30.205,-313.886 -30.202,-305.319L-12.951,-305.862C-11.861,-306.15 -3.496,-308.577 0,-315.566M14.729,-325.744L-1.667,-328.496C-2.678,-328.443 -9.781,-327.935 -13.417,-324.042C-14.69,-322.674 -15.388,-321.073 -15.534,-319.168L1.921,-318.072C2.781,-318.159 10.569,-319.136 14.729,-325.744M-49.28,-260.655L-64.882,-255.672C-65.724,-255.211 -72.017,-251.599 -73.57,-246.449C-74.11,-244.658 -74.018,-242.903 -73.287,-241.12L-56.957,-248.119C-56.795,-248.23 -49.963,-252.467 -49.28,-260.655M-39.282,-275.509L-55.29,-272.092C-56.203,-271.682 -62.758,-268.599 -64.737,-263.598C-65.428,-261.854 -65.486,-260.096 -64.909,-258.26L-48.174,-263.746C-47.986,-263.846 -40.671,-267.403 -39.282,-275.509M-27.985,-289.471L-44.373,-287.507C-45.329,-287.174 -52.106,-284.678 -54.475,-279.901C-55.3,-278.237 -55.499,-276.504 -55.07,-274.638L-37.898,-278.486C-37.94,-278.486 -30.197,-281.561 -27.985,-289.471M-14.589,-303.157L-31.235,-302.631C-32.664,-302.215 -44.747,-298.442 -43.873,-289.997L-26.596,-292.313C-25.595,-292.665 -17.453,-295.74 -14.589,-303.157M-77.214,-141.245L-87.048,-127.998C-87.458,-127.132 -90.367,-120.646 -88.615,-115.594C-87.988,-113.784 -86.85,-112.384 -85.156,-111.342L-76.103,-126.569C-76.116,-126.569 -73.078,-134.259 -77.214,-141.245M-77.86,-158.92L-88.882,-146.715C-89.377,-145.852 -92.836,-139.578 -91.523,-134.38C-91.057,-132.549 -90.075,-131.078 -88.527,-129.913L-78.246,-144.315L-78.246,-144.312C-78.257,-144.312 -74.377,-151.664 -77.86,-158.92M-77.029,-176.729L-89.104,-165.448C-89.665,-164.654 -93.688,-158.745 -92.844,-153.513C-92.544,-151.679 -91.7,-150.158 -90.266,-148.882L-78.596,-162.064C-78.612,-162.064 -74.15,-169.084 -77.029,-176.729M-92.301,-172.617C-92.171,-170.698 -91.449,-169.042 -90.105,-167.581L-77.352,-179.921C-77.228,-180.093 -72.26,-186.381 -74.565,-194.293L-87.567,-184.187C-88.197,-183.438 -92.653,-177.96 -92.301,-172.617M-70.519,-211.682L-84.275,-202.775C-84.971,-202.092 -90.028,-196.939 -90.11,-191.597C-90.139,-189.718 -89.557,-188.048 -88.339,-186.526L-74.61,-197.506C-74.624,-197.511 -69.088,-203.611 -70.519,-211.682M-64.83,-228.55L-79.525,-220.939C-80.033,-220.515 -82.602,-218.319 -84.431,-215.313C-86.72,-211.544 -86.934,-208.102 -85.063,-205.056L-70.408,-214.916C-70.421,-214.916 -64.142,-220.439 -64.83,-228.55M-57.796,-244.962L-73.004,-238.669C-73.83,-238.098 -79.683,-233.895 -80.76,-228.626C-81.134,-226.8 -80.903,-225.075 -80.046,-223.389L-64.411,-231.752C-64.258,-231.879 -57.769,-236.69 -57.796,-244.962M-50.489,-57.068L-53.638,-40.936C-53.622,-39.949 -53.387,-32.81 -49.621,-29.015C-48.274,-27.662 -46.655,-26.895 -44.696,-26.702L-43.053,-44.273C-43.071,-44.464 -43.535,-52.517 -50.489,-57.068M-58.762,-72.861L-63.358,-56.986C-63.435,-56.015 -63.869,-48.822 -60.45,-44.689C-59.259,-43.247 -57.756,-42.349 -55.882,-41.966L-52.596,-59.392C-52.604,-59.413 -52.41,-67.751 -58.762,-72.861M-71.766,-73.92C-71.93,-72.92 -72.946,-65.843 -69.884,-61.411C-68.794,-59.836 -67.341,-58.788 -65.462,-58.227L-60.799,-75.373C-60.775,-75.579 -59.746,-83.526 -65.605,-89.258L-71.766,-73.92ZM-77.648,-78.768C-76.733,-77.17 -75.433,-76.045 -73.692,-75.357L-67.375,-91.96C-67.344,-92.156 -65.621,-100.002 -71.067,-106.15L-78.416,-91.46C-78.667,-90.475 -80.313,-83.426 -77.648,-78.768M-83.923,-96.837C-83.166,-95.162 -81.975,-93.926 -80.305,-93.071L-72.626,-108.97C-72.639,-108.97 -70.188,-116.896 -74.954,-123.589L-83.462,-109.584C-83.796,-108.661 -86.143,-101.749 -83.923,-96.837M-17.482,-15.182L-16.301,1.206C-15.971,2.381 -12.814,12.758 -5.351,12.758C-4.864,12.758 -4.364,12.713 -3.856,12.625L-7.01,-4.793C-7.023,-4.793 -9.752,-12.623 -17.482,-15.182M-29.702,-28.152L-29.959,-11.613C-29.71,-10.337 -27.104,1.378 -18.617,0.862L-20.26,-16.82C-20.316,-17.03 -22.155,-24.934 -29.702,-28.152M-40.748,-42.159L-42.455,-25.757C-42.331,-24.476 -40.907,-12.435 -32.325,-12.327L-32.325,-30.028C-32.365,-30.235 -33.513,-38.266 -40.748,-42.159M41.275,24.33L48.229,39.287C48.854,40.131 53.913,46.694 59.775,46.694C61.159,46.694 62.509,46.315 63.811,45.574L54.765,30.501C54.752,30.501 49.446,23.941 41.275,24.33M38.239,23.764C38.221,23.764 33.5,16.907 25.296,16.431L30.933,32.031C31.504,32.962 36.294,40.459 42.407,40.459C43.537,40.459 44.667,40.197 45.786,39.681L38.239,23.764ZM10.154,7.174L14.219,23.181C14.743,24.227 19.173,32.687 25.688,32.687C26.603,32.687 27.543,32.515 28.482,32.181L22.308,15.568C22.205,15.396 18.31,8.322 10.154,7.174M7.129,6.049C7.116,6.049 3.811,-1.533 -4.099,-3.406L-1.482,12.858C-1.061,13.964 2.763,23.464 9.712,23.464C10.389,23.464 11.083,23.374 11.795,23.197L7.129,6.049ZM135.272,39.128C132.649,39.128 130.212,39.715 128.01,40.877L140.607,51.5C141.332,51.881 145.611,54.008 149.93,54.008C153.232,54.008 155.664,52.817 157.331,50.367L142.658,40.621C142.629,40.621 139.416,39.128 135.272,39.128M116.298,39.581C114.21,39.581 112.214,39.983 110.343,40.771L121.879,52.304C122.607,52.778 127.42,55.794 132.152,55.794C134.864,55.794 136.994,54.823 138.63,52.841L124.906,41.729C124.877,41.729 121.119,39.581 116.298,39.581M97.051,38.25C95.511,38.25 94.002,38.474 92.539,38.922L103.291,51.648C104.016,52.212 109.049,55.993 114.014,55.993C116.313,55.993 118.221,55.197 119.804,53.564L107.178,41.359C107.155,41.359 102.77,38.25 97.051,38.25M89.448,39.207C89.43,39.207 84.746,35.212 78.418,35.212C77.307,35.212 76.198,35.336 75.11,35.579L84.558,49.094C85.264,49.761 90.477,54.49 95.76,54.49C97.726,54.49 99.446,53.844 100.981,52.526L89.448,39.202L89.448,39.207ZM82.306,49.989L71.884,35.595C71.866,35.598 67.023,30.633 59.997,30.633C59.322,30.633 58.645,30.676 57.968,30.766L66.105,45.066C66.796,45.842 72.038,51.468 77.667,51.468C79.31,51.468 80.866,50.968 82.306,49.989M197.196,25.785L212.801,31.165C213.148,31.208 214.251,31.335 215.725,31.335C220.65,31.335 226.638,30.086 228.15,24.348L210.901,20.379C210.92,20.387 210.597,20.366 210.086,20.366C207.543,20.366 201.512,20.927 197.196,25.785M192.184,27.55C189.426,27.55 184.475,28.146 180.484,31.872L195.566,38.697C196.058,38.803 198.077,39.202 200.538,39.202C206.347,39.202 210.014,37.175 211.446,33.176L194.602,27.699C194.668,27.699 193.623,27.55 192.184,27.55M173.572,33.102C170.725,33.102 166.776,33.722 163.291,36.479L177.589,44.619C178.198,44.802 181.114,45.643 184.382,45.643C189.153,45.643 192.348,43.923 193.89,40.523L177.719,33.534C177.727,33.544 176.046,33.102 173.572,33.102M154.436,36.95C151.16,36.95 148.22,37.797 145.672,39.469L159.324,48.798C159.975,49.07 163.714,50.568 167.631,50.568C171.492,50.568 174.265,49.115 175.893,46.255L160.407,37.887C160.372,37.887 157.821,36.95 154.436,36.95M243.239,-1.077L259.651,0.1C260.649,-0.043 267.712,-1.212 270.964,-5.454C272.108,-6.95 272.645,-8.63 272.592,-10.57L255.044,-9.874C254.827,-9.831 246.788,-8.455 243.239,-1.077M228.674,9.243L245.062,11.866C246.502,11.786 258.241,10.892 258.929,2.4L241.238,1.437C241.328,1.444 233.045,2.27 228.674,9.243M243.99,14.041L226.422,11.572C226.509,11.582 218.231,11.699 213.317,18.241L229.301,22.176C230.611,22.234 242.646,22.483 243.99,14.041M306.121,-50.744C306.851,-52.501 306.936,-54.287 306.375,-56.168L289.499,-50.82C289.322,-50.72 282.01,-47.168 280.504,-39.065L296.642,-42.474C297.523,-42.852 304.065,-45.79 306.121,-50.744M295.776,-34.617C296.647,-36.279 296.898,-38.025 296.523,-39.918L279.245,-36.088C279.277,-36.088 271.549,-33.14 269.215,-25.384L285.583,-27.221C286.511,-27.522 293.289,-29.875 295.776,-34.617M284.085,-19.602C285.067,-21.168 285.445,-22.854 285.22,-24.733L267.651,-22.539C267.463,-22.473 259.67,-20.29 256.801,-12.576L273.195,-12.967C274.182,-13.206 281.224,-15.053 284.085,-19.602M330.239,-127.595L316.24,-116.618C316.108,-116.468 310.561,-110.643 312.011,-102.569L325.918,-111.365C326.619,-112.035 331.758,-117.118 331.922,-122.48C331.983,-124.367 331.43,-126.047 330.239,-127.595M327.884,-103.797C328.114,-105.686 327.723,-107.428 326.693,-109.084L311.882,-99.349C311.9,-99.349 305.626,-93.826 306.317,-85.72L321.02,-93.193C321.795,-93.828 327.244,-98.454 327.884,-103.797M322.226,-85.551C322.607,-87.358 322.382,-89.068 321.53,-90.753L305.883,-82.521C305.912,-82.521 299.158,-77.588 299.018,-69.458L314.356,-75.616C315.184,-76.169 321.117,-80.311 322.226,-85.551M314.912,-67.834C315.449,-69.625 315.359,-71.382 314.623,-73.166L298.288,-66.307C298.118,-66.195 291.28,-62.065 290.497,-53.758L306.229,-58.606C307.089,-59.082 313.358,-62.689 314.912,-67.834M333.724,-179.503C333.288,-181.363 332.295,-182.866 330.731,-184.07L320.316,-169.809C320.329,-169.809 316.449,-162.572 319.826,-155.218L330.967,-167.277C331.473,-168.126 334.976,-174.297 333.724,-179.503M334.902,-160.404C334.627,-162.299 333.777,-163.892 332.317,-165.231L320.525,-152.063C320.419,-151.886 315.912,-145.148 318.82,-137.506L331.044,-148.549C331.618,-149.337 335.662,-155.13 334.902,-160.404M332.153,-146.403L319.265,-134.328C319.143,-134.163 314.052,-127.765 316.235,-119.834L329.355,-129.805C330.006,-130.565 334.566,-136.087 334.251,-141.451C334.137,-143.336 333.452,-144.966 332.153,-146.403M308.251,-255.91L303.31,-239.029C303.324,-239.029 302.297,-230.664 308.116,-225.001L314.285,-240.365C314.462,-241.313 315.624,-248.331 312.649,-252.732C311.585,-254.304 310.14,-255.352 308.251,-255.91M316.203,-238.77L309.894,-222.312C309.91,-222.312 308.164,-214.164 313.459,-207.99L320.945,-222.683C321.197,-223.643 322.888,-230.553 320.276,-235.221C319.35,-236.875 318.011,-238.045 316.203,-238.77M317.061,-190.652L325.989,-204.563C326.333,-205.521 328.612,-212.235 326.429,-217.126C325.648,-218.872 324.412,-220.164 322.663,-221.061L314.843,-205.146C314.859,-205.146 312.411,-197.225 317.061,-190.652M330.951,-198.408C330.335,-200.216 329.207,-201.61 327.514,-202.65L318.312,-187.683C318.328,-187.683 315.171,-179.971 319.313,-172.879L329.279,-186.002C329.699,-186.873 332.676,-193.364 330.951,-198.408M262.576,-315.312C262.382,-315.312 262.189,-315.304 261.993,-315.291L263.369,-297.73C263.422,-297.523 265.143,-289.621 272.674,-286.414L273.063,-302.824C272.835,-304.068 270.522,-315.312 262.576,-315.312M275.421,-302.083L275.283,-284.535C275.318,-284.323 276.352,-276.287 283.577,-272.288L285.411,-288.682C285.3,-290.058 284.085,-301.866 275.421,-302.083M287.792,-287.706L286.006,-270.147C286.027,-269.943 286.369,-261.906 293.17,-257.249L296.446,-273.495C296.44,-274.471 296.274,-281.619 292.543,-285.411C291.243,-286.732 289.682,-287.491 287.792,-287.706M298.695,-272.32L295.398,-254.894C295.411,-254.894 295.088,-246.661 301.312,-241.562L306.168,-257.31C306.253,-258.297 306.743,-265.41 303.361,-269.544C302.157,-271.015 300.619,-271.928 298.695,-272.32M217.744,-347.642C216.86,-347.642 215.961,-347.486 215.05,-347.174L221.095,-330.425C221.11,-330.425 225.114,-323.219 233.111,-322.047L229.182,-338.054C228.666,-339.108 224.281,-347.642 217.744,-347.642M233.686,-338.184C233.008,-338.184 232.304,-338.097 231.595,-337.917L236.123,-320.909C236.133,-320.909 239.447,-313.192 247.367,-311.311L244.874,-327.58C244.446,-328.705 240.627,-338.184 233.686,-338.184M248.619,-327.445C248.174,-327.445 247.716,-327.408 247.251,-327.337L250.265,-309.913C250.275,-309.913 252.89,-302.078 260.604,-299.408L259.548,-315.936C259.204,-317.135 256.034,-327.445 248.619,-327.445M14.086,-338.806C12.753,-338.864 0.868,-339.1 -0.577,-330.663L16.886,-328.07C17.736,-328.083 25.431,-328.372 30.102,-334.604L14.086,-338.806ZM46.348,-342.122L30.734,-347.502C30.38,-347.549 29.17,-347.698 27.572,-347.698C22.748,-347.698 16.883,-346.47 15.399,-340.817L32.52,-336.713C32.515,-336.713 32.52,-336.715 32.534,-336.715C32.613,-336.715 32.986,-336.689 33.526,-336.689C36.038,-336.689 42.005,-337.25 46.348,-342.122M63.048,-348.073L48.118,-354.893C47.61,-355.009 45.353,-355.496 42.661,-355.496C37.04,-355.496 33.492,-353.527 32.092,-349.637L48.814,-343.881L48.819,-343.881C49.057,-343.881 56.959,-342.492 63.048,-348.073M65.943,-360.667C65.332,-360.86 62.308,-361.771 58.949,-361.771C54.345,-361.771 51.227,-360.114 49.666,-356.838L65.843,-349.569C65.975,-349.569 73.853,-347.465 80.244,-352.4L65.943,-360.667ZM75.833,-366.566C72.091,-366.566 69.394,-365.171 67.796,-362.419L83.161,-353.779C83.197,-353.779 85.804,-352.823 89.239,-352.823C92.462,-352.823 95.357,-353.636 97.866,-355.242L84.357,-364.69C83.69,-364.978 79.826,-366.566 75.833,-366.566M93.611,-369.855C90.335,-369.855 87.908,-368.67 86.22,-366.243L100.891,-356.369C100.92,-356.369 104.133,-354.874 108.311,-354.874C110.96,-354.874 113.429,-355.464 115.673,-356.629L103.082,-367.251C102.367,-367.632 98.006,-369.855 93.611,-369.855M133.329,-356.261L121.662,-368.056C120.937,-368.535 116.187,-371.536 111.505,-371.536C108.811,-371.536 106.691,-370.567 105.056,-368.582L118.642,-357.476L118.64,-357.476C118.666,-357.476 122.511,-355.168 127.534,-355.168C129.542,-355.168 131.485,-355.533 133.329,-356.261M129.617,-371.559C127.32,-371.559 125.396,-370.768 123.758,-369.149L136.518,-356.806C136.537,-356.806 140.84,-353.707 146.508,-353.707C148.043,-353.707 149.554,-353.935 151.017,-354.387L140.392,-367.111C139.686,-367.675 134.653,-371.559 129.617,-371.559M147.839,-369.995C145.91,-369.995 144.219,-369.376 142.711,-368.106L154.103,-354.657C154.127,-354.657 158.895,-350.585 165.315,-350.585C166.366,-350.585 167.411,-350.696 168.441,-350.913L159.134,-364.547C158.401,-365.235 153.148,-369.995 147.839,-369.995M183.62,-345.8C184.271,-345.8 184.925,-345.842 185.578,-345.93L177.438,-360.236C176.777,-360.995 171.569,-366.748 165.948,-366.748C164.334,-366.748 162.801,-366.259 161.38,-365.293L171.672,-350.892L171.669,-350.892C171.682,-350.892 176.56,-345.8 183.62,-345.8M183.678,-361.924C182.323,-361.924 181.005,-361.57 179.735,-360.86L188.643,-345.644L188.643,-345.647C188.661,-345.647 193.779,-339.364 201.692,-339.364C201.837,-339.364 201.985,-339.364 202.134,-339.37L195.312,-354.448C194.666,-355.319 189.572,-361.924 183.678,-361.924M201.038,-355.554C199.948,-355.554 198.85,-355.308 197.767,-354.827L205.314,-338.777C205.325,-338.777 209.808,-331.777 217.99,-331.301L212.603,-347.054C212.002,-348.031 207.18,-355.554 201.038,-355.554" style="fill:rgb(23,56,99);"/>
    </g>
    <g transform="matrix(1,0,0,1,268.507,293.122)">
        <path d="M0,2.981C-0.587,3.478 -1.219,3.839 -1.896,4.11C-2.62,4.336 -3.342,4.426 -4.109,4.336C-4.471,4.291 -4.787,4.246 -5.103,4.11L-5.148,4.065C-5.329,4.02 -5.509,3.929 -5.69,3.794C-6.142,3.523 -6.503,3.162 -6.729,2.665C-6.819,2.484 -6.91,2.259 -6.955,2.033C-7,1.762 -7,1.491 -6.955,1.175C-6.91,0.633 -6.729,0.136 -6.367,-0.27C-6.052,-0.677 -5.645,-0.993 -5.103,-1.174C-4.606,-1.354 -4.065,-1.445 -3.432,-1.354C-2.936,-1.309 -2.529,-1.219 -2.168,-0.903C-2.032,-0.903 -1.851,-0.812 -1.716,-0.677C-1.219,-0.316 -0.858,0.181 -0.542,0.813C-0.497,0.904 -0.451,0.994 -0.451,1.13C-0.181,1.671 -0.045,2.304 0,2.981" style="fill:rgb(23,56,99);fill-rule:nonzero;"/>
    </g>
    <g transform="matrix(1,0,0,1,208.263,204.693)">
        <path d="M0,-55.14L-0.99,-51.3L-19.19,-45.83L-45.21,-38.07C-46.38,-28.27 -46.83,-15.35 -44.39,-0.85L-47.74,0C-50.72,-17.65 -49.45,-32.42 -48.32,-40.73C-32.25,-45.52 -16.12,-50.35 0,-55.14" style="fill:rgb(23,56,99);fill-rule:nonzero;"/>
    </g>
    <g transform="matrix(1,0,0,1,208.983,253.293)">
        <path d="M0,30.44C-0.04,30.39 -0.13,30.34 -0.18,30.3C-1.26,29.53 -2.39,28.67 -3.57,27.77C-3.97,27.45 -4.42,27.09 -4.88,26.73L-5.01,26.6C-6.68,25.29 -8.4,23.8 -10.2,22.13C-11.15,21.27 -12.1,20.36 -13.05,19.46C-14.04,18.51 -14.99,17.56 -15.99,16.53C-16.75,15.73 -17.54,14.9 -18.3,14.04C-18.45,13.88 -18.6,13.71 -18.74,13.55C-20.95,11.11 -23.12,8.49 -25.29,5.6C-25.83,4.92 -26.33,4.24 -26.82,3.52C-27.37,2.8 -27.86,2.07 -28.36,1.35L-26.01,0.36L-25.15,0C-25.07,0.12 -24.98,0.24 -24.9,0.36C-24.03,1.63 -23.12,2.82 -22.22,4.02C-19.56,7.51 -16.69,10.87 -13.62,14.04C-12.82,14.89 -11.99,15.72 -11.15,16.53C-10.34,17.33 -9.51,18.11 -8.67,18.87C-6.14,21.18 -3.7,23.25 -1.35,25.11L-0.95,26.64L-0.68,27.68L-0.04,30.3L0,30.44Z" style="fill:rgb(23,56,99);fill-rule:nonzero;"/>
    </g>
    <g transform="matrix(1,0,0,1,178.813,230.973)">
        <path d="M0,14.46L0,14.5L-1.62,18.43C-5.64,11.88 -9.34,4.43 -12.42,-3.97L-8.31,-2.97C-5.96,3.39 -3.11,9.22 0,14.46" style="fill:rgb(23,56,99);fill-rule:nonzero;"/>
    </g>
    <g transform="matrix(1,0,0,1,251.703,282.273)">
        <path d="M0,-27.67C-3.1,-23.21 -6.48,-18.95 -10.11,-14.94C-10.87,-14.1 -11.65,-13.27 -12.44,-12.45C-16.54,-8.17 -20.96,-4.19 -25.69,-0.58C-26.46,0.01 -27.18,0.6 -27.91,1.09C-28.04,1.18 -28.13,1.27 -28.27,1.36L-28.22,1.09L-28.18,1.09L-27.54,-1.53L-27.27,-2.61L-26.96,-3.92C-23.56,-6.57 -20.31,-9.43 -17.23,-12.45C-16.4,-13.27 -15.58,-14.1 -14.77,-14.94C-10.68,-19.21 -6.91,-23.8 -3.49,-28.62C-3.39,-28.76 -3.3,-28.89 -3.2,-29.03L-2.25,-28.62L0,-27.67Z" style="fill:rgb(23,56,99);fill-rule:nonzero;"/>
    </g>
    <g transform="matrix(-0.828129,-0.560538,-0.560538,0.828129,248.39,243.894)">
        <path d="M-5.089,-23.78C-7.227,-15.145 -8.321,-6.998 -8.641,0.647L-5.089,-1.694C-4.702,-7.76 -3.803,-14.083 -2.273,-20.679L-5.089,-23.78Z" style="fill:rgb(23,56,99);fill-rule:nonzero;"/>
    </g>
    <g transform="matrix(1,0,0,1,271.853,149.513)">
        <path d="M0,55.14L-3.35,54.28C-0.91,39.69 -1.31,26.69 -2.44,16.8L-46.7,3.84L-47.69,0L0.67,14.13C1.8,22.53 3.02,37.39 0,55.14" style="fill:rgb(23,56,99);fill-rule:nonzero;"/>
    </g>
    <g transform="matrix(1,0,0,1,273.013,209.133)">
        <path d="M0,11.95C-1.85,12.41 -3.7,12.87 -5.54,13.33C-13.93,15.41 -22.31,17.5 -30.7,19.59L-38.65,21.58L-40.68,22.07L-56.8,6L-56.8,86.52L-57.03,85.61C-59.08,77.3 -61.19,69 -63.26,60.69L-63.88,58.2L-67.29,44.52L-67.92,41.99L-70.4,32.05L-72.38,24.2L-72.93,22.07L-56.8,6L-137.32,6L-113.98,0.13C-112.13,-0.33 -110.26,-0.75 -108.42,-1.23L-82.91,-7.64L-72.93,-10.13L-56.8,6L-56.8,-74.57L-54.05,-63.55C-53.52,-61.41 -52.97,-59.27 -52.42,-57.14L-43.16,-20.11C-42.34,-16.78 -41.51,-13.45 -40.68,-10.13L-56.8,6L23.76,6C15.84,7.98 7.92,9.98 0,11.95M-21.76,41L-22.25,40.77L-41.36,32.42L-39.14,23.61L-21.76,41ZM-91.53,40.68L-91.85,41L-91.62,40.5L-83.27,21.49L-74.46,23.65L-91.53,40.68ZM-91.85,-29.05L-72.56,-20.51L-74.73,-11.98L-91.85,-29.05ZM-21.76,-29.05L-30.29,-9.72L-38.92,-11.89L-21.76,-29.05ZM0.64,-1.82C-1.21,-2.27 -3.07,-2.69 -4.91,-3.17L-28.13,-9L-28.08,-9.13L-18.24,-32.57L-41.81,-22.73L-50.25,-56.51C-50.81,-58.64 -51.35,-60.78 -51.88,-62.92L-56.8,-82.61L-61.73,-62.87C-62.29,-60.74 -62.82,-58.6 -63.35,-56.46L-71.8,-22.73L-72.02,-22.77L-95.32,-32.57L-85.48,-9L-108.78,-3.17C-110.62,-2.7 -112.45,-2.23 -114.29,-1.77L-145.41,6C-145.41,6 -110.11,14.79 -110.05,14.8C-107.85,15.35 -105.65,15.93 -103.45,16.47L-85.48,20.94L-92.84,38.56C-93.31,39.71 -93.78,40.85 -94.26,41.99C-94.61,42.84 -94.96,43.68 -95.32,44.52C-93.68,43.8 -92.02,43.12 -90.36,42.44L-89.29,41.99L-71.8,34.67C-71.8,34.67 -71.01,37.85 -69.97,41.99C-69.77,42.8 -69.56,43.65 -69.34,44.52C-68.1,49.46 -66.7,55.06 -65.92,58.2C-65.53,59.74 -65.29,60.69 -65.29,60.69C-62.55,71.68 -59.78,82.66 -57.03,93.65L-56.8,94.56C-53.97,83.27 -51.14,71.98 -48.31,60.69L-47.69,58.2L-44.27,44.52L-43.64,41.99L-41.81,34.67C-35.96,37.11 -30.11,39.56 -24.26,41.99C-22.88,42.57 -21.51,43.14 -20.13,43.71L-18.24,44.52C-18.59,43.67 -18.95,42.83 -19.31,41.99C-19.8,40.8 -20.31,39.61 -20.81,38.42L-28.13,20.94C-15.8,17.86 -3.48,14.8 8.84,11.73C16.44,9.83 24.04,7.93 31.64,6.04C31.7,6.02 31.75,6.01 31.8,6L0.64,-1.82Z" style="fill:rgb(23,56,99);fill-rule:nonzero;"/>
    </g>
    <g transform="matrix(1,0,0,1,357.11,174.83)">
        <path d="M0,44.45C-0.5,44.99 -1.58,45.4 -2.94,45.72C-3.03,45.72 -3.12,45.76 -3.25,45.76C-4.52,46.03 -6.1,46.17 -7.77,46.17C-12.29,46.17 -15.94,45.13 -15.94,43.82C-15.94,42.51 -12.29,41.47 -7.77,41.47C-3.3,41.47 0.36,42.51 0.36,43.82C0.36,44.04 0.22,44.32 0,44.45M-31.16,42.87L-35.05,44.59L-37.62,45.44L-38.02,41.28L-38.03,41.15L-31.16,41.15L-31.16,42.87ZM-48.69,133.85C-48.55,133.96 -48.41,134.09 -48.26,134.22C-48.24,134.24 -48.21,134.26 -48.19,134.28C-47.78,134.64 -47.33,135.04 -46.92,135.45C-46.88,135.49 -46.88,135.49 -46.83,135.54C-46.34,136.03 -45.88,136.51 -45.46,137C-45.32,137.16 -45.18,137.32 -45.05,137.48C-45.05,137.48 -45.04,137.49 -45.03,137.5C-43,139.98 -42.01,142.23 -42.72,142.95C-42.9,143.08 -43.13,143.17 -43.4,143.17C-43.81,143.17 -44.3,143.04 -44.89,142.77C-46.34,142.13 -48.28,140.73 -50.17,138.84C-51.26,137.75 -52.16,136.67 -52.89,135.68L-52.7,134.95L-52.21,132.88L-51.89,131.7C-51.85,131.7 -51.8,131.75 -51.76,131.75L-51.76,131.79C-51.71,131.79 -51.62,131.84 -51.58,131.88C-51.53,131.88 -51.48,131.88 -51.44,131.93C-50.85,132.24 -50.17,132.69 -49.5,133.19C-49.24,133.39 -48.97,133.61 -48.69,133.85M-80.58,95.13C-80.61,95.08 -80.63,95.04 -80.66,94.99L-67.11,94.99C-68.59,97 -70.14,98.94 -71.78,100.81C-71.8,100.84 -71.83,100.88 -71.86,100.91C-73.13,102.37 -74.45,103.78 -75.82,105.15C-77.25,101.67 -78.84,98.34 -80.58,95.13M-77.77,107.17C-78.04,107.45 -78.31,107.73 -78.58,108.01C-78.63,108 -78.68,108 -78.73,107.99L-78.76,107.99C-84.22,107.31 -90.37,106.7 -97.18,106.18C-97.25,106.17 -97.33,106.17 -97.4,106.17C-97.68,106.14 -97.95,106.12 -98.23,106.1C-98.71,106.06 -99.19,106.03 -99.68,106.01C-100.43,105.96 -101.17,105.91 -101.9,105.86C-102.37,105.82 -102.85,105.79 -103.33,105.76C-104.16,102.06 -105.11,98.48 -106.13,95.12C-106.14,95.08 -106.16,95.03 -106.17,94.99L-83.55,94.99C-81.38,98.82 -79.44,102.84 -77.77,107.04C-77.78,107.05 -77.8,107.07 -77.81,107.08C-77.79,107.11 -77.78,107.14 -77.77,107.17M-84.95,92.63L-84.96,92.63L-84.99,92.57C-84.97,92.59 -84.96,92.61 -84.95,92.63M-68.69,92.63L-68.71,92.63L-68.77,92.53C-68.74,92.56 -68.72,92.6 -68.69,92.63M-91.7,78.95C-91.73,78.91 -91.77,78.86 -91.81,78.82L-81.88,78.82C-77,82.88 -72.62,87.49 -68.69,92.5L-82.01,92.5C-84.87,87.63 -88.08,83.06 -91.7,78.95M-64.81,-28.84L-68.15,-31.6L-63.32,-36.43L-62.1,-35.21L-63.59,-31.28L-64.81,-28.84ZM-140.9,-61.72L-140.9,-68.59L-139.19,-68.59L-137.47,-64.7L-136.61,-62.13L-140.9,-61.72ZM-138.55,-99.88C-137.24,-99.88 -136.21,-96.22 -136.21,-91.71C-136.21,-87.24 -137.24,-83.58 -138.55,-83.58C-139.86,-83.58 -140.9,-87.24 -140.9,-91.71C-140.9,-96.22 -139.86,-99.88 -138.55,-99.88M-213.66,-31.6L-218.49,-36.43L-217.27,-37.65L-213.34,-36.12L-210.95,-34.9L-213.66,-31.6ZM-206.39,105.15C-207.76,103.78 -209.08,102.37 -210.35,100.91C-210.38,100.88 -210.41,100.84 -210.43,100.81C-212.07,98.94 -213.62,97 -215.1,94.99L-201.55,94.99C-201.58,95.04 -201.6,95.08 -201.63,95.13C-203.37,98.34 -204.96,101.67 -206.39,105.15M-200.33,78.82L-190.4,78.82C-190.44,78.86 -190.48,78.91 -190.51,78.95C-194.13,83.06 -197.34,87.63 -200.2,92.5L-213.52,92.5C-209.59,87.49 -205.21,82.88 -200.33,78.82M-176.04,94.99C-176.05,95.03 -176.07,95.08 -176.08,95.12C-177.1,98.48 -178.05,102.06 -178.88,105.76C-178.89,105.8 -178.9,105.85 -178.91,105.89C-178.98,106.18 -179.05,106.47 -179.11,106.77C-181.57,106.96 -184.04,107.17 -186.51,107.4C-191.74,107.87 -197,108.43 -202.28,109.08C-202.32,109.04 -202.37,109.01 -202.41,108.97C-202.73,108.69 -203.05,108.4 -203.36,108.11C-203.4,108.07 -203.44,108.03 -203.48,107.99C-203.53,107.94 -203.58,107.89 -203.64,107.84C-203.89,107.59 -204.14,107.35 -204.4,107.08C-204.41,107.07 -204.43,107.05 -204.44,107.04C-202.77,102.84 -200.83,98.82 -198.66,94.99L-176.04,94.99ZM-233.95,134.22C-234.16,134.45 -234.37,134.69 -234.59,134.92C-234.6,134.93 -234.62,134.94 -234.63,134.96C-234.79,135.12 -234.95,135.29 -235.11,135.45C-235.15,135.49 -235.15,135.49 -235.2,135.54C-235.24,135.59 -235.29,135.63 -235.33,135.68C-235.63,135.98 -235.93,136.26 -236.22,136.54C-236.24,136.56 -236.25,136.57 -236.27,136.58C-236.43,136.73 -236.59,136.87 -236.75,137C-239.33,139.23 -241.75,140.36 -242.51,139.56C-243.46,138.66 -241.61,135.31 -238.4,132.15C-235.24,128.99 -231.95,127.14 -231,128.04C-230.22,128.87 -231.52,131.48 -233.95,134.22M-250.64,41.15L-250.64,39.44L-246.8,37.72L-244.23,36.86L-243.78,41.15L-250.64,41.15ZM-265.91,38.9C-266.54,40.03 -269.91,40.87 -273.98,40.87C-278.31,40.87 -281.88,39.89 -282.1,38.64L-282.1,38.63C-282.11,38.59 -282.11,38.56 -282.11,38.52C-282.11,38.3 -281.97,38.02 -281.75,37.89C-281.25,37.35 -280.17,36.94 -278.81,36.62C-278.72,36.62 -278.63,36.58 -278.5,36.58C-277.23,36.31 -275.65,36.17 -273.98,36.17C-269.46,36.17 -265.81,37.21 -265.81,38.52C-265.81,38.65 -265.85,38.78 -265.91,38.9M-227.48,-48.67C-228.42,-47.77 -231.72,-49.57 -234.93,-52.78C-238.09,-55.94 -239.94,-59.28 -239.04,-60.19C-238.09,-61.13 -234.75,-59.28 -231.59,-56.12C-228.42,-52.92 -226.57,-49.62 -227.48,-48.67M-46.79,-52.69C-43.63,-55.85 -40.29,-57.7 -39.38,-56.75C-38.48,-55.85 -40.29,-52.51 -43.49,-49.35C-46.65,-46.19 -49.99,-44.34 -50.9,-45.24C-51.8,-46.19 -49.99,-49.48 -46.79,-52.69M5.96,38.4C5.24,37.32 3.97,36.23 2.3,35.33C-0.86,33.57 -5.51,32.35 -11.02,32.35C-17.84,32.35 -24.03,34.11 -27.64,35.83C-28,35.87 -29.09,36.05 -30.21,36.05C-31.75,36.05 -32.38,35.73 -32.65,35.55C-34.01,34.52 -36.9,33.57 -38.43,33.12C-40.18,10.67 -49.16,-9.71 -62.97,-25.8C-62.99,-25.82 -63.01,-25.84 -63.02,-25.86C-63.06,-25.91 -63.1,-25.95 -63.14,-26C-62.41,-27.45 -61.06,-30.11 -60.79,-31.83C-60.65,-32.95 -58.67,-34.72 -57.36,-35.62C-57.36,-35.62 -56.23,-36.34 -56.23,-36.39C-52.61,-37.88 -47.74,-40.77 -43.45,-45.06C-39.29,-49.21 -37.03,-53.28 -36.08,-56.53C-35.72,-57.84 -35.54,-59.01 -35.54,-60.01C-35.54,-60.5 -35.59,-60.95 -35.68,-61.36C-35.7,-61.47 -35.72,-61.57 -35.75,-61.67C-35.78,-61.79 -35.81,-61.91 -35.86,-62.03C-36.05,-62.66 -36.35,-63.16 -36.76,-63.57C-37.3,-64.12 -38.07,-64.48 -38.98,-64.66C-39.38,-64.75 -39.88,-64.79 -40.38,-64.79C-41.32,-64.79 -42.5,-64.61 -43.81,-64.25C-47.06,-63.3 -51.17,-61.04 -55.28,-56.93C-60.11,-52.06 -63.27,-46.41 -64.58,-42.71C-65.53,-41.35 -67.25,-39.5 -68.33,-39.32C-70.05,-39.1 -72.8,-37.74 -74.2,-36.97C-90.36,-50.74 -110.79,-59.67 -133.23,-61.35L-133.27,-61.35C-133.33,-61.35 -133.39,-61.36 -133.45,-61.36C-133.9,-62.9 -134.85,-65.74 -135.89,-67.1C-136.57,-68 -136.43,-70.62 -136.12,-72.2L-135.84,-73.55C-134.35,-77.17 -132.95,-82.63 -132.95,-88.73C-132.95,-94.42 -134.26,-99.21 -136.12,-102.37C-137.15,-104.08 -138.33,-105.35 -139.5,-106.02C-139.76,-106.15 -140,-106.26 -140.25,-106.33C-140.53,-106.43 -140.8,-106.49 -141.07,-106.51L-141.14,-106.51C-141.21,-106.52 -141.28,-106.52 -141.35,-106.52C-141.99,-106.52 -142.57,-106.34 -143.21,-106.02C-144.38,-105.35 -145.55,-104.08 -146.55,-102.37C-148.4,-99.21 -149.71,-94.42 -149.71,-88.73C-149.71,-81.91 -147.95,-75.68 -146.23,-72.06C-145.96,-70.48 -145.83,-67.95 -146.5,-67.1C-147.53,-65.71 -148.48,-62.89 -148.98,-61.35C-148.98,-61.34 -148.99,-61.33 -148.99,-61.32C-157.74,-60.63 -166.17,-58.84 -174.16,-56.09C-186.73,-51.79 -198.2,-45.1 -208.06,-36.57C-209.5,-37.34 -212.21,-38.69 -213.88,-38.92C-215.01,-39.1 -216.77,-41.04 -217.68,-42.39L-218.44,-43.52C-219.93,-47.14 -222.82,-52.01 -227.11,-56.3C-231.54,-60.73 -235.92,-62.99 -239.22,-63.84C-240.67,-64.15 -242.19,-64.37 -243.66,-64.03C-244.49,-63.84 -245.29,-63.44 -245.85,-62.79C-245.99,-62.63 -246.11,-62.46 -246.21,-62.28C-246.26,-62.2 -246.31,-62.11 -246.35,-62.03C-247.17,-60.41 -246.84,-58.28 -246.44,-56.62C-245.59,-53.01 -243.15,-48.58 -238.99,-44.43C-234.16,-39.59 -228.51,-36.48 -224.77,-35.12C-223.41,-34.22 -221.56,-32.5 -221.42,-31.42C-221.16,-29.82 -219.98,-27.32 -219.19,-25.86C-219.18,-25.83 -219.16,-25.81 -219.15,-25.78C-219.11,-25.7 -219.07,-25.62 -219.03,-25.55C-232.9,-9.34 -241.79,11.17 -243.42,33.7C-245,34.15 -247.8,35.1 -249.15,36.14C-249.42,36.32 -250.04,36.63 -251.54,36.62C-252.21,36.62 -252.89,36.57 -253.56,36.49C-253.64,36.48 -253.71,36.47 -253.78,36.46C-254.06,36.42 -254.24,36.4 -254.25,36.4L-255.21,36.2L-255.38,36.17L-255.56,36.13C-259.17,34.59 -264.63,33.19 -270.73,33.19C-273.02,33.19 -275.16,33.39 -277.1,33.77C-277.38,33.82 -277.66,33.88 -277.93,33.94C-278.35,34.03 -278.75,34.12 -279.14,34.23C-279.42,34.3 -279.68,34.38 -279.95,34.46C-281.26,34.85 -282.44,35.32 -283.49,35.85C-283.7,35.95 -283.9,36.06 -284.1,36.17C-284.31,36.29 -284.51,36.41 -284.71,36.53C-286.07,37.38 -287.09,38.29 -287.75,39.24C-287.79,39.29 -287.82,39.34 -287.85,39.39C-287.87,39.41 -287.88,39.44 -287.9,39.46C-287.91,39.49 -287.93,39.51 -287.95,39.55C-287.98,39.6 -288.01,39.65 -288.04,39.7C-288.11,39.82 -288.17,39.94 -288.22,40.06C-288.23,40.08 -288.24,40.1 -288.25,40.12C-288.3,40.24 -288.35,40.35 -288.38,40.47C-288.42,40.57 -288.45,40.66 -288.46,40.76C-288.47,40.78 -288.48,40.81 -288.48,40.83C-288.5,40.88 -288.51,40.94 -288.51,40.99C-288.55,41.19 -288.57,41.39 -288.57,41.59L-288.57,41.62C-288.57,41.73 -288.56,41.84 -288.55,41.95C-288.54,42.03 -288.53,42.12 -288.51,42.2C-288.41,42.78 -288.15,43.37 -287.71,43.94C-286.99,45.02 -285.72,46.11 -284.05,47.01C-280.89,48.77 -276.24,49.99 -270.73,49.99C-269.45,49.99 -268.19,49.93 -266.97,49.82C-264.94,49.63 -263,49.3 -261.22,48.89C-258.76,48.33 -256.59,47.6 -254.88,46.85C-254.61,46.74 -254.36,46.63 -254.11,46.51C-254.09,46.51 -254.08,46.51 -254.06,46.5C-253.66,46.45 -252.61,46.29 -251.54,46.29L-251.54,46.26C-250.04,46.27 -249.42,46.57 -249.15,46.75C-247.91,47.7 -245.39,48.58 -243.78,49.1C-243.63,49.15 -243.5,49.2 -243.37,49.24C-241.61,71.73 -232.58,92.19 -218.67,108.31C-219.06,109.09 -219.62,110.24 -220.1,111.41C-220.12,111.46 -220.14,111.5 -220.16,111.56C-220.24,111.57 -220.32,111.58 -220.39,111.59C-221.62,111.76 -222.81,111.93 -224.04,112.15C-224.31,112.19 -224.59,112.24 -224.87,112.28C-226.27,112.51 -227.7,112.73 -229.1,112.96L-231.36,113.32L-231.24,113.8L-231.09,114.45C-231.09,114.45 -231.04,114.54 -231.04,114.68C-230.95,114.9 -230.86,115.35 -230.68,115.99C-230.64,116.3 -230.55,116.66 -230.46,117.11C-230.23,118.11 -229.96,119.28 -229.64,120.64C-229.96,120.82 -230.32,121.04 -230.68,121.31C-230.98,121.5 -231.28,121.7 -231.62,121.88C-231.63,121.89 -231.64,121.89 -231.65,121.9C-231.7,121.93 -231.76,121.96 -231.81,121.99C-233.93,123.39 -236.1,125.11 -238.18,127.19C-238.27,127.23 -238.31,127.28 -238.4,127.37C-242.09,131.05 -245.43,135.89 -245.96,141.2C-246.13,142.91 -245.9,144.85 -244.59,145.95C-244.44,146.07 -244.28,146.18 -244.11,146.27C-243.97,146.36 -243.81,146.43 -243.66,146.5C-243.19,146.71 -242.67,146.83 -242.16,146.89C-238.86,147.3 -235.45,145.76 -232.67,144.12C-231.51,143.43 -230.31,142.61 -229.1,141.62L-229.07,141.59C-228.9,141.45 -228.72,141.3 -228.55,141.15C-228.02,140.69 -227.5,140.21 -226.95,139.65C-226.81,139.53 -226.67,139.38 -226.53,139.24C-226.17,138.88 -225.85,138.57 -225.53,138.2C-225.35,138.93 -225.22,139.51 -225.08,140.15C-225.51,140.64 -225.98,141.14 -226.48,141.62C-226.49,141.63 -226.5,141.64 -226.51,141.65C-228.27,143.41 -230.4,145.08 -232.94,146.42C-234.34,147.15 -235.88,147.64 -237.64,147.96C-237.72,147.98 -237.8,147.99 -237.88,148.01C-238.09,148.05 -238.3,148.09 -238.51,148.12C-239.57,148.31 -240.68,148.45 -241.88,148.59C-241.66,148.68 -241.39,148.73 -241.11,148.77C-240.66,148.86 -240.21,148.95 -239.76,149.04C-238.26,149.34 -236.75,149.6 -235.24,149.81C-233.98,149.99 -232.67,150.15 -231.33,150.29C-230.65,150.36 -229.97,150.42 -229.28,150.48C-229.25,150.48 -229.22,150.49 -229.19,150.49C-228.52,150.55 -227.84,150.6 -227.17,150.64C-226.86,150.66 -226.55,150.68 -226.23,150.7C-221.46,150.97 -216.68,150.95 -211.9,150.78C-211.66,150.78 -211.41,150.77 -211.17,150.76L-223.05,144.35C-225.16,135.08 -227.25,125.8 -229.51,116.57L-230.05,114.18L-228.92,114C-227.43,113.73 -225.94,113.5 -224.45,113.28C-207.11,110.18 -189.48,108.52 -171.93,107.27C-166.15,106.86 -160.55,106.59 -155.17,106.37C-155.58,106 -155.94,105.73 -156.44,105.33C-156.52,105.34 -156.6,105.34 -156.68,105.34C-156.74,105.34 -156.79,105.35 -156.85,105.35C-163.39,105.62 -169.95,106.01 -176.53,106.55C-176.26,105.37 -175.99,104.2 -175.68,103.07C-175.5,102.26 -175.27,101.44 -175.04,100.63C-174.55,98.69 -173.96,96.84 -173.37,94.99L-167.32,94.99C-168.04,94.17 -168.81,93.36 -169.53,92.5L-172.61,92.5C-172.33,91.65 -172.01,90.81 -171.7,89.97C-171.76,89.9 -171.87,89.79 -172,89.64C-172.36,89.24 -172.55,88.98 -173.01,88.39C-173.12,88.25 -173.29,88.03 -173.51,87.76C-174.14,89.3 -174.68,90.88 -175.22,92.5L-197.26,92.5C-194.24,87.49 -190.81,82.88 -187.06,78.82L-181.68,78.82L-181.01,77.19C-181.05,77.15 -181.1,77.1 -181.14,77.01C-181.28,76.79 -181.46,76.56 -181.59,76.29L-184.66,76.29C-184.11,75.74 -183.52,75.18 -182.93,74.67L-182.88,74.62C-182.81,74.56 -182.74,74.5 -182.68,74.44C-182.81,74.26 -182.95,74.03 -183.08,73.81C-183.26,73.49 -183.44,73.17 -183.63,72.86C-183.76,72.63 -183.9,72.41 -183.99,72.18C-185.43,73.49 -186.79,74.84 -188.14,76.29L-197.26,76.29C-193.71,73.56 -190.01,71.09 -186.15,69.01C-186.13,69 -186.11,68.99 -186.09,68.98C-186.01,68.93 -185.92,68.89 -185.84,68.84C-185.97,68.61 -186.11,68.43 -186.2,68.21C-188.77,63.28 -191.12,57.95 -193.15,52.22C-193.24,51.99 -193.33,51.72 -193.38,51.5L-235.65,40.93C-235.65,61.4 -228.6,81.72 -216.17,97.97C-215.98,98.24 -215.77,98.51 -215.55,98.78C-215.11,99.35 -214.66,99.91 -214.21,100.47L-212.92,102C-212.81,102.13 -212.69,102.26 -212.57,102.39C-212.5,102.48 -212.42,102.56 -212.34,102.65C-210.92,104.28 -209.42,105.84 -207.92,107.4C-207.58,107.74 -207.25,108.08 -206.91,108.4C-206.6,108.72 -206.28,109.02 -205.93,109.35C-205.93,109.35 -205.77,109.51 -205.75,109.53C-206.43,109.62 -207.06,109.71 -207.74,109.8C-209.23,109.98 -210.72,110.16 -212.21,110.39C-212.22,110.38 -212.24,110.36 -212.25,110.35C-212.29,110.31 -212.33,110.27 -212.36,110.23C-212.64,109.96 -212.9,109.68 -213.15,109.4C-213.18,109.36 -213.22,109.33 -213.25,109.29C-230.12,91.47 -240.39,67.48 -240.39,41.15C-240.39,-1.88 -212.94,-38.61 -174.62,-52.46C-174.01,-52.68 -173.4,-52.89 -172.78,-53.1C-172.11,-53.33 -171.44,-53.54 -170.77,-53.75C-163.59,-56.02 -156.04,-57.49 -148.26,-58.06C-147.69,-58.1 -147.12,-58.14 -146.55,-58.17C-145.96,-58.21 -145.37,-58.24 -144.78,-58.26C-144.14,-58.28 -143.49,-58.3 -142.85,-58.31C-142.2,-58.32 -141.55,-58.33 -140.9,-58.33C-140.38,-58.33 -139.87,-58.33 -139.36,-58.31C-138.71,-58.31 -138.07,-58.29 -137.43,-58.26C-136.84,-58.24 -136.25,-58.21 -135.66,-58.17C-135.09,-58.14 -134.52,-58.11 -133.95,-58.06C-82.31,-54.51 -41.41,-11.38 -41.41,41.15C-41.41,67.47 -51.66,91.4 -68.45,109.23C-68.49,109.27 -68.52,109.31 -68.56,109.35C-68.65,109.33 -68.74,109.32 -68.84,109.31C-68.88,109.3 -68.92,109.3 -68.96,109.29C-70.19,109.09 -71.5,108.91 -72.89,108.71C-73.61,108.63 -74.37,108.51 -75.18,108.42C-75.22,108.41 -75.26,108.41 -75.3,108.4L-75.33,108.4C-75.29,108.36 -74.85,107.92 -74.65,107.72C-58.98,92.05 -48.96,71.13 -47,49.01C-46.89,47.85 -46.74,46.66 -46.74,45.49C-46.65,44 -46.61,42.56 -46.61,41.06C-46.61,41.06 -88.52,51.54 -88.52,51.55C-88.56,51.69 -88.61,51.81 -88.65,51.95C-90.82,58.04 -93.3,63.64 -96.01,68.79C-96.05,68.85 -96.09,68.92 -96.12,68.98L-96.06,69.01C-92.2,71.09 -88.5,73.56 -84.95,76.29L-94.07,76.29C-95.42,74.84 -96.78,73.49 -98.22,72.18C-98.31,72.41 -98.45,72.63 -98.58,72.86C-98.77,73.17 -98.95,73.49 -99.13,73.81C-99.26,74.03 -99.4,74.26 -99.53,74.44C-99.47,74.5 -99.4,74.56 -99.33,74.62L-99.28,74.67C-98.69,75.18 -98.1,75.74 -97.55,76.29L-100.34,76.29L-100.42,76.42C-100.54,76.65 -100.69,76.87 -100.85,77.06L-100.12,78.82L-95.15,78.82C-91.4,82.88 -87.97,87.49 -84.95,92.5L-106.99,92.5C-107.53,90.88 -108.07,89.3 -108.7,87.76C-109.29,88.5 -109.85,89.28 -110.51,89.97C-110.19,90.81 -109.87,91.65 -109.6,92.5L-112.41,92.5L-112.52,92.63C-113.21,93.44 -113.94,94.21 -114.66,94.99L-108.88,94.99L-108.84,95.12C-108.25,96.97 -107.66,98.82 -107.17,100.76C-106.94,101.57 -106.71,102.39 -106.53,103.2C-106.31,103.99 -106.12,104.8 -105.93,105.62C-106.63,105.58 -107.31,105.55 -107.98,105.51C-111.33,105.34 -114.32,105.22 -116.83,105.13C-117.58,105.1 -118.29,105.08 -118.95,105.06C-119.17,105.05 -119.39,105.05 -119.6,105.04C-120.12,105.03 -120.61,105.01 -121.07,105C-122.21,104.97 -123.13,104.95 -123.79,104.94C-124.19,104.93 -124.6,104.93 -125.01,104.92C-125.19,105.07 -125.36,105.21 -125.53,105.34C-125.58,105.38 -125.63,105.42 -125.68,105.46C-125.88,105.64 -126.07,105.81 -126.27,105.96C-124.51,105.96 -122.79,106 -121.08,106.05C-120.22,106.1 -119.36,106.1 -118.55,106.14C-116.43,106.18 -114.32,106.24 -112.21,106.33C-110.32,106.41 -108.42,106.5 -106.53,106.62C-106.39,106.63 -106.25,106.63 -106.1,106.65C-105.96,106.65 -105.82,106.66 -105.68,106.67C-104.83,106.72 -103.97,106.77 -103.12,106.83C-100.64,107 -98.17,107.19 -95.7,107.4C-90.4,107.86 -85.1,108.4 -79.8,108.97C-79.76,108.97 -79.71,108.98 -79.67,108.98C-78.54,109.1 -77.41,109.22 -76.27,109.35C-76.23,109.35 -76.19,109.36 -76.15,109.36C-75.38,109.45 -74.61,109.54 -73.88,109.66C-72.45,109.83 -71.09,110.03 -69.85,110.23C-69.82,110.24 -69.78,110.24 -69.75,110.25C-69.65,110.27 -69.56,110.28 -69.46,110.3C-67.04,110.64 -64.6,111 -62.17,111.4C-62.15,111.4 -62.13,111.41 -62.11,111.41C-60.51,111.68 -58.92,111.96 -57.34,112.28C-56.92,112.36 -56.5,112.44 -56.08,112.53C-55.51,112.64 -54.93,112.76 -54.36,112.89C-53.22,113.13 -52.07,113.4 -50.94,113.68C-50.93,113.68 -50.92,113.69 -50.91,113.69C-50.43,113.82 -50.08,113.86 -49.86,113.95C-49.68,113.95 -49.59,114 -49.59,114L-48.59,114.27C-49.23,116.8 -49.9,119.35 -50.59,121.88C-50.6,121.92 -50.61,121.95 -50.62,121.99C-52.2,127.87 -53.86,133.74 -55.26,139.65C-55.27,139.68 -55.28,139.72 -55.29,139.75C-55.44,140.37 -55.58,141 -55.73,141.62C-55.73,141.66 -55.74,141.69 -55.75,141.73C-55.93,142.51 -56.1,143.3 -56.27,144.08C-56.27,144.08 -56.36,144.48 -56.41,144.57L-70.36,150.67C-68.19,150.76 -66.12,150.8 -64.08,150.8C-57.72,150.8 -52.03,150.4 -46.97,149.68C-45.93,149.49 -44.94,149.36 -43.94,149.18C-43.08,149.04 -42.27,148.86 -41.5,148.68C-41.94,148.61 -42.38,148.52 -42.8,148.4C-43.11,148.32 -43.4,148.23 -43.69,148.12C-44.07,148 -44.42,147.85 -44.76,147.69C-44.98,147.6 -45.21,147.51 -45.39,147.42C-48.26,146 -50.65,144.14 -52.59,142.16C-52.77,141.98 -52.94,141.8 -53.11,141.62L-53.14,141.59C-53.47,141.23 -53.79,140.87 -54.1,140.51L-53.83,139.42C-53.02,140.19 -52.21,140.87 -51.44,141.5C-48.51,143.75 -45.36,145.54 -41.69,146.26C-40.57,146.49 -39.27,146.57 -38.1,146.27C-37.98,146.25 -37.86,146.22 -37.75,146.18C-36.85,145.9 -36.07,145.38 -35.55,144.51C-35,143.58 -34.93,142.45 -34.98,141.37C-35.19,137.11 -37.23,133.45 -39.81,130.17C-41.16,128.45 -42.68,126.87 -44.31,125.4C-45.85,124.02 -47.51,122.53 -49.32,121.49L-48.37,117.84L-47.28,113.5L-48.32,113.28L-49.32,113.01C-49.41,112.96 -52.21,112.24 -57.54,111.24C-58.71,111.02 -60.02,110.75 -61.47,110.52C-61.49,110.47 -61.52,110.41 -61.54,110.36C-61.97,109.38 -62.43,108.5 -62.77,107.86C-49.03,91.83 -40.17,71.5 -38.44,49.24C-38.44,49.19 -38.43,49.15 -38.43,49.1C-38.41,48.95 -38.4,48.8 -38.39,48.65C-36.81,48.15 -34.01,47.21 -32.65,46.21C-32.38,46.03 -31.75,45.72 -30.21,45.72C-28.86,45.72 -27.55,45.94 -27.5,45.94L-26.19,46.21C-22.58,47.75 -17.12,49.15 -11.02,49.15C-5.47,49.15 -0.81,47.93 2.35,46.17C4.02,45.22 5.24,44.18 6,43.1C6.04,43.05 6.07,43 6.1,42.95C6.13,42.9 6.16,42.86 6.2,42.79C6.62,42.11 6.82,41.42 6.82,40.75C6.82,39.98 6.55,39.17 5.96,38.4" style="fill:rgb(23,56,99);fill-rule:nonzero;"/>
    </g>
</svg>
